<?xml version="1.0" standalone="no"?>
<!DOCTYPE svg PUBLIC "-//W3C//DTD SVG 1.1//EN" "http://www.w3.org/Graphics/SVG/1.1/DTD/svg11.dtd" >
<svg xmlns="http://www.w3.org/2000/svg" xmlns:xlink="http://www.w3.org/1999/xlink" version="1.1">
<metadata></metadata>
<defs>
<font id="lansbury_fgregular" horiz-adv-x="636" >
<font-face units-per-em="2048" ascent="1638" descent="-410" />
<missing-glyph horiz-adv-x="366" />
<glyph horiz-adv-x="0" />
<glyph unicode="&#xd;" horiz-adv-x="366" />
<glyph unicode=" "  horiz-adv-x="366" />
<glyph unicode="&#x09;" horiz-adv-x="366" />
<glyph unicode="&#xa0;" horiz-adv-x="366" />
<glyph unicode="!" horiz-adv-x="260" d="M53 53q0 31 25.5 49.5t58.5 18.5h19q29 0 48 -25.5t19 -54.5q0 -63 -78 -72v-2l-2 2q-35 0 -62.5 24.5t-27.5 59.5zM72 1073q0 29 45 75t73 46q21 0 21 -33q0 -129 -9 -385t-9 -383t-13 -194l-26 41q-49 29 -58 49q-2 8 -2 71q0 119 -11 356.5t-11 356.5z" />
<glyph unicode="&#x22;" horiz-adv-x="573" d="M53 1227q0 4 2 10t2 10q18 49 80 49h19q38 0 71 -88q0 -45 -39 -123q-43 -88 -79 -88q-10 0 -11 21q0 18 43 63v2l19 37q0 20 -19 25q-6 0 -35 -2q-53 53 -53 84zM332 1212q0 84 82 84h18q41 0 74 -88q0 -45 -41 -123q-43 -86 -80 -88l-8 19q0 23 43 65v2l18 37 q0 12 -53 34t-53 58z" />
<glyph unicode="#" horiz-adv-x="806" d="M39 358q0 76 14 76q2 0 22.5 -10t33.5 -10q2 0 84 18v160q-39 -6 -111 -39q-18 -14 -27 -14q-16 0 -16 90q0 76 14 76q2 0 22.5 -10.5t33.5 -10.5q2 0 84 18v379q0 27 31.5 71t58.5 50q20 -23 20 -184q0 -49 -3 -146.5t-3 -144.5l170 39v313q0 27 32.5 71t57.5 50 q20 -10 21 -160q0 -41 -3.5 -125t-3.5 -122q37 8 111 32h-2q25 14 76 41q20 -2 20 -98q0 -92 -22 -92q-12 0 -29.5 18.5t-38.5 18.5q-16 0 -115 -25v-166q37 8 111 33h-2q25 14 76 41q20 -2 20 -98q1 -92 -22 -92q-12 0 -29.5 18t-38.5 18q-16 0 -115 -24q0 -47 2 -133v-133 q0 -168 -10 -191q-31 29 -96 82v348l-170 -41v-108q2 -72 2 -109q0 -147 -10 -168q-33 25 -96 82v275q-39 -6 -111 -39q-18 -14 -27 -15q-16 0 -16 90zM297 457l170 39v166l-170 -41v-164z" />
<glyph unicode="$" horiz-adv-x="858" d="M-8 311q0 119 87 197t204 78q20 0 41 -2v37q-260 139 -261 247q0 272 261 320q0 49 23.5 97t66.5 61q20 -20 14 -152h12q66 2 144 -31q96 -37 96 -94q0 -104 -39 -133l-8 6l-4 12l-4 2q-47 117 -197 136v-406q184 -84 248 -133q127 -99 127 -236q0 -139 -121 -229 q-109 -78 -254 -86q2 -129 2 -106q0 -59 -10 -78q-16 16 -96 82v102q-135 12 -230 92q-102 86 -102 217zM86 297q0 -82 80 -141q70 -52 158 -62v395q-18 4 -39 5q-92 0 -145.5 -53.5t-53.5 -143.5zM178 920q1 -99 146 -183v342q-145 -53 -146 -159zM428 90q98 8 176 66 q86 65 86 157q0 90 -90 162q-53 41 -172 94v-479z" />
<glyph unicode="%" horiz-adv-x="1271" d="M68 827q0 121 63 203q70 92 186 92q117 0 183 -94q59 -84 59 -205q0 -119 -61 -202q-66 -92 -181 -93q-117 0 -186 93q-63 86 -63 206zM184 827q0 -72 31 -122q35 -63 102 -64q63 0 99 64q28 52 28 122t-26 121q-37 66 -101 66q-66 0 -102 -64q-31 -51 -31 -123zM313 74 q51 100 140 243q143 236 145 242l195 332q37 66 73 131q53 76 119 76l16 -2l3 -13q0 -10 -317.5 -553.5t-334.5 -558.5zM727 301q0 121 64 203q70 92 186 92q117 0 182 -94q60 -82 60 -205q0 -119 -62 -203q-66 -92 -180 -92q-117 0 -186 92q-63 86 -64 207zM844 301 q0 -72 30 -123q35 -63 103 -63q63 0 98 63q29 53 29 123t-27 123q-35 63 -100 63q-66 0 -103 -63q-31 -51 -30 -123z" />
<glyph unicode="&#x26;" horiz-adv-x="1042" d="M27 350q0 127 260 322q-96 82 -127 114q-66 70 -66 125q0 117 80 195t197 78q131 0 209 -64q82 -70 82 -198q0 -96 -48 -154q-31 -33 -139 -104q86 -90 238 -252q41 72 112 192q29 43 48.5 55.5t68.5 14.5q10 -23 10 -35q0 -20 -84 -154q-51 -82 -102 -163l205 -222 q18 -18 39 -34q14 -14 16 -48q-29 -14 -49 -16q-47 -6 -96 51q-56 55 -162 164q-47 -104 -154 -162q-98 -55 -221 -55q-139 0 -229 104.5t-88 245.5zM131 348q-2 -106 67.5 -171.5t176.5 -65.5q104 0 183 54.5t104 156.5q-74 78 -146 157q-94 98 -141 135 q-244 -143 -244 -266zM199 918q39 -74 108 -130q41 -31 82 -63q106 57 127 76q47 43 47 119q0 150 -213 149q-152 0 -151 -151z" />
<glyph unicode="'" horiz-adv-x="305" d="M53 1227q0 4 2 10t2 10q18 49 80 49h19q38 0 71 -88q0 -45 -39 -123q-43 -88 -79 -88q-10 0 -11 21q0 18 43 63v2l19 37q0 20 -19 25q-6 0 -35 -2q-53 53 -53 84z" />
<glyph unicode="(" horiz-adv-x="409" d="M131 387q0 438 127 858q10 31 21 31q29 0 52 -44t23 -75q0 -41 -20 -108q-16 -53 -33 -107q-53 -217 -53 -569q0 -186 28 -371q6 -39 48 -201q30 -122 30 -200q0 -12 -28 -58q-35 -49 -39 -63l-2 -2q-63 133 -111 444q-43 276 -43 465z" />
<glyph unicode=")" horiz-adv-x="337" d="M98 -397q0 47 21 116q31 104 33 113q53 244 53 549q0 154 -43 389q-55 311 -64 387v6q0 29 26 71t52 42q10 0 19 -31q129 -442 129 -893q0 -180 -41 -401q-20 -111 -88 -395q-6 -27 -27 -78q-4 14 -18 43q0 2 -31 39q-20 23 -21 43z" />
<glyph unicode="*" horiz-adv-x="671" d="M51 707q0 78 17 77q2 0 21.5 -10t33.5 -10q33 0 82 12q-43 35 -60 47q-35 25 -55 27q-31 4 -31 14q0 16 54.5 69.5t64.5 41.5q4 -18 25 -53q41 -43 71 -68v59q0 51 23 103q27 61 70 71q18 -10 18 -116q0 -25 -2 -84q8 10 16 16l58 66q39 39 67 39q12 0 25 -9 q6 -14 -29 -74.5t-49 -74.5l-2 -2q20 6 39 14h-2q25 14 76 41q18 -2 18 -100q0 -90 -20 -90q-14 0 -32 18.5t-36 18.5q-29 0 -68 -13q23 -25 72 -61v2q27 -8 82 -27q12 -14 -59 -84q-53 -51 -70 -51q-14 0 -14 18.5t-17 59.5q-18 20 -57 61l2 -106q0 -84 -12 -109 q-43 23 -95 56v139q-20 -20 -61 -60t-104 -88q-2 35 -9 111q37 25 99 76q-80 -23 -101.5 -39.5t-29.5 -16.5q-18 0 -19 89z" />
<glyph unicode="+" horiz-adv-x="722" d="M104 502q0 76 15 76q2 0 21.5 -10.5t33.5 -10.5q33 0 78 12q39 12 78 23q0 20 -2 58t-2 57q0 51 22 102q29 61 72 72q18 -8 18 -115q0 -27 -2 -76t-2 -72q41 10 125 37h-2q25 14 76 41q20 -2 20 -100q1 -90 -22 -90q-12 0 -29.5 18.5t-38.5 18.5q-20 0 -131 -31 q0 -29 2 -84v-84q0 -115 -10 -135v2q-33 27 -96 80v194q-74 -18 -95 -22q-63 -18 -83.5 -34.5t-28.5 -16.5q-16 0 -17 90z" />
<glyph unicode="," horiz-adv-x="260" d="M53 39q0 76 84 76h19q71 -1 71 -103q0 -37 -43 -112q-45 -82 -75 -82q-10 0 -11 24q0 20 14.5 58.5t16.5 58.5q-76 12 -76 80zM375 109z" />
<glyph unicode="-" horiz-adv-x="700" d="M104 481v35q0 61 15 62q2 0 21.5 -10.5t33.5 -10.5q33 0 191 41q150 39 194 57h-2q25 14 76 41q18 -2 18 -86l2 -39q1 -65 -22 -65q-12 0 -29.5 18.5t-38.5 18.5q-76 0 -192 -37q-94 -31 -187 -60q-10 -4 -32.5 -19t-30.5 -15q-16 0 -17 69z" />
<glyph unicode="." horiz-adv-x="260" d="M51 45q0 70 96 70q37 0 58 -33h2q16 -22 16 -45q0 -59 -84 -80q-88 14 -88 88z" />
<glyph unicode="/" horiz-adv-x="589" d="M35 16q39 117 233 611q205 518 226 536q61 61 114 62l10 -2q5 -7 7 -15q4 -18 -236 -614q-203 -500 -285 -694q-23 63 -67 108z" />
<glyph unicode="0" horiz-adv-x="651" d="M39 440q0 158 70 279q82 143 229 143q152 0 227 -151q62 -119 62 -287q0 -158 -66 -277q-80 -145 -223 -145q-152 0 -234 152q-66 121 -65 286zM147 434q0 -111 41 -198q51 -111 150 -111q98 0 147 115q37 85 37 198q0 115 -37 199q-49 111 -147 111q-100 0 -152 -113 q-39 -86 -39 -201z" />
<glyph unicode="1" horiz-adv-x="296" d="M63 0q0 2 21 84l4 4q16 53 16 238q0 61 -2 184t-2 186q0 10 -17 23.5t-17 25.5q0 18 54 69.5t77 55.5l8 -10l-2 -733q0 -14 19.5 -51t19.5 -74q-12 -2 -27 -2h-152z" />
<glyph unicode="2" horiz-adv-x="608" d="M23 0q4 33 26 94q43 59 166 158q139 111 186 164q88 100 88 202q0 123 -167 123q-121 0 -183 -172l-2 -2q-23 10 -51.5 52.5t-28.5 66.5q0 47 109 109q102 57 156 57q266 0 266 -250q0 -131 -86 -235q-45 -55 -162 -142q-88 -66 -92 -100h2q12 -8 33 -8q184 0 276 65 q10 -14 10 -69q0 -72 -11 -85.5t-101 -21.5q-74 -6 -111 -6h-323z" />
<glyph unicode="3" horiz-adv-x="614" d="M-61 -403q10 27 47 59.5t65 38.5q18 -131 168 -131q113 0 184 96q66 88 66 205q0 104 -53 188q-61 96 -162 97q-61 0 -121 -41l-4 2v127q20 23 68.5 52t64.5 44q135 113 135 274q0 59 -35.5 96t-95.5 37q-129 0 -184 -172q-20 6 -50 46t-30 63q0 66 123 127 q109 51 184 51q92 0 148 -84q51 -74 51 -168q0 -100 -45 -198q-49 -109 -131 -152q45 -25 129 -84q129 -114 129 -315q0 -174 -96 -289q-102 -123 -275 -123q-86 0 -164 41t-116 113z" />
<glyph unicode="4" horiz-adv-x="737" d="M16 37q0 10 105 190q117 197 127 217q78 156 145 373q8 35 35 101q14 23 57 42t72 19q6 -2 14 -4l2 -10q0 -41 -184 -478q-27 -66 -190 -344q4 -33 43 -32h202v315q0 10 117 104v-419h113v-111h-113v-522q0 -49 -12 -49q-14 0 -69.5 51t-55.5 63q0 10 10 29.5t10 32.5 v395h-415q-12 18 -13 37z" />
<glyph unicode="5" horiz-adv-x="694" d="M-41 -457q0 18 43 60q33 33 59 51l2 -2q-2 -8 -6 -21q0 -35 60 -59q49 -20 88 -21q139 0 217 146q63 117 63 270q0 115 -84 189q-82 68 -198 67q-35 0 -68 -14h-2l-35 -16h-6q-45 0 -45 45q0 18 72 292q68 266 86 322h354q25 -29 68 -94v-13l-4 -6h-322q-33 -96 -98 -411 q20 10 55 10q59 0 131 -33q121 -55 172 -149q45 -82 45 -224q0 -193 -100 -340q-113 -166 -295 -165q-72 0 -150 26q-102 35 -102 90z" />
<glyph unicode="6" horiz-adv-x="712" d="M41 403q0 268 156 527q145 238 378 401q16 -49 17 -98q0 -14 -2 -64q-86 -31 -193 -139q-117 -117 -123 -199l35 17h2q20 14 43 14q152 0 242 -166q74 -137 74 -303q0 -168 -76 -272q-86 -119 -248 -119q-141 0 -229 135q-76 117 -76 266zM141 410q0 -113 45 -195 q57 -102 160 -102q225 0 225 297q0 111 -57 215q-68 125 -168 125q-104 0 -162 -123q-43 -96 -43 -217z" />
<glyph unicode="7" horiz-adv-x="581" d="M25 696q0 37 14 90q20 66 47 66h496l14 -14q-2 -27 -31 -90q-145 -332 -209 -746q-18 -164 -37 -326q-25 -231 -53 -303l-10 -4q-25 16 -50.5 82t-25.5 100q0 41 15 105q20 90 22 104q20 145 41 291q25 170 55 287q6 25 64 180q53 141 53 158q0 27 -45 26h-309 q-29 0 -41 -16l-8 -4z" />
<glyph unicode="8" horiz-adv-x="700" d="M41 379q0 72 47 158q8 14 92 139q-57 68 -77.5 127t-20.5 151q0 117 82 204t198 87q131 0 214 -77.5t83 -209.5q0 -106 -20 -155q-14 -31 -94 -127q139 -212 139 -314q0 -150 -95 -256t-245 -106q-139 0 -225 123q-78 111 -78 256zM133 362q0 -106 67.5 -178.5 t174.5 -72.5q96 0 153.5 69.5t57.5 167.5q0 100 -64.5 174t-165.5 74q-88 0 -155.5 -72.5t-67.5 -161.5zM168 932q0 -84 58.5 -137.5t142.5 -53.5q86 0 139 63.5t53 151.5t-67 136q-59 39 -152 38q-76 0 -125 -61t-49 -137z" />
<glyph unicode="9" horiz-adv-x="712" d="M35 469q0 162 78 266q86 117 243 117q147 0 234 -129q74 -112 74 -268q0 -264 -166 -510q-96 -141 -363 -408q-23 35 -22 150l2 8q86 31 194 139q113 117 121 199q-59 -33 -82 -33q-150 0 -239 166q-74 137 -74 303zM131 477q0 -117 55 -229q66 -135 170 -135 q102 0 160 123q45 98 45 215q0 121 -43 200q-53 98 -166 99q-113 0 -170 -82q-51 -74 -51 -191z" />
<glyph unicode=":" horiz-adv-x="260" d="M43 618q0 31 25.5 49.5t58.5 18.5h18q29 0 48.5 -24.5t19.5 -55.5q0 -74 -82 -74q-35 0 -61.5 27t-26.5 59zM53 47q0 31 25.5 49.5t58.5 18.5h19q29 0 48 -25.5t19 -54.5q0 -63 -78 -72v-2l-2 2q-35 0 -62.5 24.5t-27.5 59.5z" />
<glyph unicode=";" horiz-adv-x="260" d="M43 618q0 31 25.5 49.5t58.5 18.5h18q29 0 48.5 -24.5t19.5 -55.5q0 -74 -82 -74q-35 0 -61.5 27t-26.5 59zM53 51l4 10v5q18 49 80 49h19q29 0 47 -33q2 -4 24 -55v-15q0 -37 -43 -112q-45 -82 -75 -82q-10 0 -11 24q0 35 43 58v4q18 20 19 45l-15 14v-2q-92 6 -92 90z " />
<glyph unicode="&#x3c;" horiz-adv-x="710" d="M29 817q0 152 95 265.5t245 113.5q186 0 256 -113l2 -16q0 -25 -27 -61.5t-51 -42.5l-12 10q-49 94 -183 94q-92 0 -149.5 -77t-57.5 -171q0 -84 61.5 -235.5t61.5 -235.5q0 -47 -14 -121q-18 -98 -20 -118h327q43 0 66.5 21.5t48.5 45.5l14 -29q-14 -45 -30 -88 q-27 -59 -56 -59h-538l-11 16q0 59 45 168t45 168q0 82 -59 232.5t-59 232.5z" />
<glyph unicode="=" horiz-adv-x="700" d="M104 354v35q0 61 15 62q2 0 21.5 -10.5t33.5 -10.5q33 0 191 41q150 39 194 57h-2q25 14 76 41q18 -2 18 -86l2 -39q1 -65 -22 -65q-12 0 -29.5 18.5t-38.5 18.5q-76 0 -192 -37q-94 -31 -187 -60q-10 -4 -32.5 -19t-30.5 -15q-16 0 -17 69zM104 625v34q0 61 15 62 q2 0 21.5 -10.5t33.5 -10.5q33 0 191 41q150 39 194 58h-2q25 14 76 41q18 -2 18 -86l2 -39q1 -66 -22 -66q-12 0 -29.5 18.5t-38.5 18.5q-76 0 -192 -37q-94 -31 -187 -59q-10 -4 -32.5 -19.5t-30.5 -15.5q-16 0 -17 70z" />
<glyph unicode="&#x3e;" horiz-adv-x="661" d="M33 641q0 215 86 369q106 186 305 186q98 0 160 -41q43 -31 116 -121l5 -2q-63 -115 -113 -139q-20 70 -43 141q-25 57 -135 58q-137 0 -209 -185q-53 -139 -53 -303q0 -178 71 -268l13 -6q63 14 360 293q6 -31 6 -148q0 -43 -6 -74q-78 0 -188 -57q-125 -66 -125 -133 q0 -31 229 -281q221 -240 276 -280q27 -18 113 -33l2 -4q-10 -33 -50 -96.5t-65 -81.5q-88 162 -305 381q-236 240 -309 352q-141 215 -141 473z" />
<glyph unicode="?" horiz-adv-x="608" d="M57 1032q0 47 109 109q100 55 156 55q260 0 260 -238q0 -162 -64 -229v-2q-80 -94 -160 -190q-100 -119 -100 -215q0 -14 5 -42t5 -42q0 -27 -59 -27q-70 0 -70 141q0 18 23 90q25 80 110 179q135 154 144 163q70 98 69 193q0 111 -163 110q-76 0 -121 -51 q-29 -33 -62 -118l-2 -3q-23 6 -51.5 49.5t-28.5 67.5zM133 51q0 70 82 70h18q29 0 48.5 -25.5t19.5 -54.5q0 -63 -78 -72v-2l-2 2q-33 0 -60.5 24.5t-27.5 57.5z" />
<glyph unicode="@" horiz-adv-x="550" d="M16 434q0 137 58 242q68 127 194 127q256 0 256 -387q0 -57 -28 -111q-35 -61 -88 -61h-144q-133 0 -133 104q0 74 102.5 129t102.5 94q0 45 -43 45h-78q-14 0 -37 -32v10q0 4 -6 61l6 15q14 2 31 2h123q66 0 65 -109q0 -14 -2 -44t-2 -44v-166q12 -4 29 -4q41 0 41 135 q0 305 -191 305q-190 0 -190 -329q0 -96 45 -183q53 -102 141 -102q55 0 111.5 45t93.5 53l10 -4v-2q-74 -158 -215 -157q-125 0 -194 127q-57 104 -58 241zM180 344q0 -2 2 -27q53 -29 86 -28h25q27 0 37 10v162h-6q-41 0 -92.5 -39t-51.5 -78z" />
<glyph unicode="A" horiz-adv-x="763" d="M-131 -336q16 14 72 41q92 131 143 535q29 289 57 579q14 119 82 234q82 143 183 143q127 0 200 -135q55 -104 66 -250q6 -188 12 -379q12 -262 45 -354q21 -25 21 -68v-8q-12 -2 -27 -2h-152q0 2 21 84l4 4q10 25 10 39v233q0 59 -47 60q-10 0 -165.5 -48t-164.5 -55 q-29 -18 -61 -215q-23 -125 -43 -249q-12 -47 -72 -201q-39 -100 -43 -109q-33 -80 -51 -92l-10 4q-80 96 -80 209zM215 522q0 -47 8 -86q127 39 176 56q139 47 154 67q18 29 18 100q0 143 -24 250q-39 174 -131 174q-113 0 -166 -233q-35 -152 -35 -328z" />
<glyph unicode="B" horiz-adv-x="763" d="M20 1182q0 14 25 14q27 0 80 -16.5t80 -16.5q180 0 303 -65q156 -82 156 -246q0 -145 -140 -217q233 -131 234 -303q0 -20 -4 -41q0 -43 -25 -131q-53 -98 -164 -137q-88 -29 -239 -29q-45 0 -143.5 3t-151.5 3q0 31 12 66q23 63 23 61v944q0 20 -23 55t-23 56zM170 137 q35 -16 53 -16h115q280 0 280 180q0 129 -110 205q-95 67 -228 67h-4q-37 0 -67 -10v41q-2 29 -2 41q0 51 10 80q20 -18 41 -39q14 -12 57 -12q82 0 153 49t71 127q0 109 -125 164q-94 43 -219 43l-25 -19v-901z" />
<glyph unicode="C" horiz-adv-x="661" d="M33 580q0 233 82 401q104 215 313 215q76 0 155 -57.5t79 -128.5q0 -31 -35 -66t-66 -43l-4 6q0 6 2 23v24q0 55 -42 91t-97 36q-47 0 -115 -47q-168 -119 -168 -454q0 -207 191 -453q104 -135 352 -369q190 -180 190 -225q0 -98 -57 -184l-4 -2q-16 27 -64 125 q-33 76 -77 122q-141 143 -283 287q-166 174 -246 316q-106 188 -106 383z" />
<glyph unicode="D" horiz-adv-x="831" d="M29 1182l4 12l14 2q25 0 70 -19.5t69 -19.5q238 0 435.5 -204.5t197.5 -442.5q0 -285 -192 -410q-158 -100 -461 -100h-119q0 27 17.5 70t17.5 57v940q0 27 -23 49q-31 29 -30 66zM186 213q0 -66 148 -66q160 0 257 101.5t97 261.5q0 246 -250 422q-102 72 -178 72 q-74 0 -74 -70v-721z" />
<glyph unicode="E" horiz-adv-x="710" d="M31 0q0 20 17.5 58t17.5 59v958q0 29 -19 86q-16 10 -16 33q57 0 184 4q121 4 186 4q111 0 195 -10q12 -25 27 -53q18 -39 36 -121l-2 -4q-14 8 -59 47q-26 22 -76 22h-4h-313q-35 0 -35 -45v-321q0 -86 47 -86q31 0 145.5 60.5t155.5 60.5q20 0 21 -117q0 -90 -19 -94 q-2 2 -35 32q-14 14 -47 15q-59 0 -159 -56q-109 -61 -109 -114v-240q0 -69 44 -69h1h358q33 0 66 26q18 16 37 35q12 14 41 37l2 -10q0 -39 -74 -197h-614z" />
<glyph unicode="F" horiz-adv-x="604" d="M25 -338q0 18 17 54t17 63v1292q0 55 -18 90q-8 10 -16 33q55 0 184 4q121 4 186 4q111 0 195 -10q20 -43 39 -88q24 -59 24 -86l-2 -4q-14 8 -59 47q-24 22 -75 22h-5h-313q-35 0 -35 -45v-465q0 -86 47 -86q31 0 145.5 60.5t155.5 60.5q20 0 20 -114q0 -90 -18 -95 l-35 33q-18 16 -47 17q-59 0 -160 -58q-109 -61 -108 -115v-671q0 -25 35 -88q-4 -12 -21 -15v-2q-45 0 -153 162z" />
<glyph unicode="G" horiz-adv-x="798" d="M16 494q0 262 136 481q145 240 385 303q18 -20 63 -88t53 -90l-2 -2q-49 12 -108 12q-8 0 -25 -4q-201 -51 -299 -234q-82 -154 -82 -378q0 -291 244 -443q107 -67 190 -67h2q49 0 50 24v461q0 20 -17.5 61t-17.5 66q14 2 30 2h125q5 0 23 -2q2 -37 -27 -86 q-12 -20 -14 -193q-1 -61 -1 -143.5t1 -185.5l2 -239v3q-20 33 -217 115q-219 92 -326 199q-168 166 -168 428z" />
<glyph unicode="H" horiz-adv-x="700" d="M-90 -434q0 14 46 43t64 74q29 68 29 190v1192q0 16 -17.5 57t-17.5 70h152q14 0 27 -2q0 -33 -19.5 -73t-19.5 -54v-522l4 -13l8 -4q37 6 184 66q141 59 182 84h5q26 14 26 190v13q0 43 -3 129t-3 124q31 43 45 64q35 43 53 47l7 -12v-1102q0 -14 19 -53t19 -72 q-12 -2 -26 -2h-152q0 29 17.5 70t17.5 57v418l-4 10l-18 2q-20 -10 -199 -76q-152 -57 -167 -80.5t-15 -42.5v-454q0 -254 -127 -424q-39 -51 -64 -51q-20 0 -39 59q-14 49 -14 78z" />
<glyph unicode="I" horiz-adv-x="270" d="M63 0q0 25 7 45q12 33 14 39l4 4q10 29 10 39v940q0 -6 -16 51q-18 18 -19 66v10q20 2 23 2h129q14 0 27 -4q0 -33 -19.5 -72t-19.5 -53v-940q0 -14 19.5 -51t19.5 -74q-10 -2 -25 -2h-154z" />
<glyph unicode="J" horiz-adv-x="344" d="M-408 -375q0 29 17 35l39 -25q23 -4 41 -4q129 0 293.5 138.5t164.5 263.5v1034q0 18 -17 58t-17 69q18 2 22 2h129q15 0 27 -4q0 -33 -19.5 -72t-19.5 -53v-1034q0 -227 -295 -439q-182 -131 -289 -131q-76 43 -76 162z" />
<glyph unicode="K" horiz-adv-x="718" d="M37 0q0 51 24 88q10 14 11 39v893q0 14 -17 27q-18 6 -18 24q0 27 121 121l14 4l8 -10v-514q0 -39 25 -49q35 27 195.5 240.5t174.5 254.5l-20 19q-33 12 -33 59h244v-6l-2 -27q-25 -23 -68 -69q-23 -27 -237 -324q147 -313 205 -549q43 -190 86 -381q55 -219 141 -362 l-6 -2q-39 10 -121 57q-92 51 -92 76q0 199 -97 541q-100 352 -208 501q-27 -8 -101 -110q-59 -82 -90 -138v-278q0 -14 19.5 -49t19.5 -74q-12 -2 -27 -2h-151z" />
<glyph unicode="L" horiz-adv-x="866" d="M49 18l12 41q12 20 37 64v944q0 10 -16 51q-18 20 -19 64v12q18 2 23 2h129q14 0 27 -4q0 -33 -19.5 -72t-19.5 -53v-944q80 -35 233 -113q12 -8 221 -178q150 -123 232 -123q29 0 59 12l10 -6q3 -18 3 -22q0 -55 -35 -91t-90 -36q-45 0 -187 112q-201 162 -272 209 q-174 113 -301 113q-14 0 -23 6z" />
<glyph unicode="M" horiz-adv-x="1357" d="M-27 -485q74 106 150 575q96 602 143 770q104 385 264 385q111 0 189 -112q45 66 83 89t111 23q158 0 263 -383q59 -217 137 -764q70 -473 114 -569v-2q5 -6 5 -12l-13 -9q-100 10 -180 117q-12 338 -94 832q-109 671 -244 671q-57 0 -94 -61q-31 -53 -31 -115v-823 q0 -20 17 -61q20 -47 22 -64q-12 -2 -27 -2h-151v14q-2 27 16.5 59.5t18.5 53.5v823q0 61 -31 115q-39 61 -96 61q-119 0 -232 -567q-82 -408 -102 -704q-2 -104 -21 -240q-14 -31 -94 -66.5t-116 -35.5q-2 0 -7 2z" />
<glyph unicode="N" horiz-adv-x="643" d="M25 1190l4 2q59 -23 172 -76q16 -10 134 -326.5t140 -316.5q10 0 10 45v414q0 94 45 188q49 102 127 140q4 2 7 2q23 0 63 -48q35 -42 45 -69l-4 -4l-6 6h-14h-6q-60 0 -113 -72q-56 -76 -56 -143v-852q0 -80 -24 -80q-31 0 -55 57q-70 215 -142 430q-117 342 -180 349 l-10 -17l2 -1265q0 -35 -113 -86h-8l-4 -3l-8 7q2 16 17 45.5t15 48.5v1505q0 25 -14 59q-10 29 -22 58z" />
<glyph unicode="O" horiz-adv-x="774" d="M47 598q0 219 76 381q100 211 295 211q190 0 287 -215q71 -162 71 -381q0 -217 -71 -379q-96 -213 -287 -213q-193 0 -293 213q-78 164 -78 383zM133 592q0 -166 62 -297q78 -170 223 -170t213 180q47 127 47 303q0 166 -51 293q-68 174 -209 174q-154 0 -230 -174 q-55 -131 -55 -309z" />
<glyph unicode="P" horiz-adv-x="768" d="M74 1169q0 27 131 27h84q481 0 481 -393q0 -147 -143 -299q-53 -57 -267 -230q-143 -115 -143 -172v-508q0 -31 -113 -86h-8l-4 -2l-8 7v-2l10 34l4 2q16 33 17 62v1499q-41 43 -41 61zM217 377q8 -2 21 -6q102 0 268 161t166 263q0 145 -105 221q-91 67 -237 67h-4 q-72 0 -107 -18l-2 -4v-684z" />
<glyph unicode="Q" horiz-adv-x="794" d="M33 582q0 158 30 252q55 164 125 247q94 115 242 115q211 0 305 -207q68 -151 68 -393q0 -225 -107 -395q-123 -201 -334 -201q-16 -29 -40 -109q18 4 40 5q117 0 197 -71t80 -187q0 -109 -98 -179l-78 88q37 45 37 97q0 66 -62 104q-53 33 -123 33q-63 0 -86 -31 q-23 18 -30 27q-16 16 -21 35q88 123 88 219q-111 33 -178 237q-55 164 -55 314zM154 584q0 -104 45 -242q57 -170 135 -172q8 53 18 109q14 80 31 96q80 -37 80 -103q0 -25 -15.5 -65.5t-17.5 -59.5h2q256 0 256 506q0 154 -51 262q-68 141 -203 142q-158 0 -229 -168 q-51 -121 -51 -305z" />
<glyph unicode="R" horiz-adv-x="739" d="M31 0q0 27 17.5 69t17.5 58v942q0 18 -17.5 52t-17.5 63v12h116q229 0 385 -74q205 -98 205 -303q0 -133 -71 -203q-43 -43 -189 -110q92 -147 185 -395q143 -373 157 -408q18 -41 66.5 -120t66.5 -122l-4 -2q-29 4 -140.5 67.5t-117.5 82.5q-10 33 -20 115 q-10 76 -27 114l-227 572q-37 94 -125 94q-33 0 -66 -17h-2q29 66 29 127q0 14 -5 39t-5 35l6 8q18 -2 71.5 -46t90.5 -44q233 0 233 203q0 139 -145 217q-119 63 -273 64q-55 0 -55 -11v-952q0 -16 19.5 -52t19.5 -73q-12 -2 -27 -2h-151z" />
<glyph unicode="S" horiz-adv-x="735" d="M-111 -414q0 33 25 33q8 0 24.5 -4t24.5 -4q178 0 399 178q231 186 232 361q0 152 -139 231q-127 74 -254 147q-135 119 -135 360v7q0 125 85 213t214 88q68 0 151 -61q90 -68 90 -131q0 -27 -27.5 -64t-56.5 -53h-2q-6 0 -8 18q-2 12 -2 25q-14 59 -62.5 106t-107.5 47 q-82 0 -123 -79q-33 -61 -33 -152q0 -172 140 -256q127 -66 256 -133q139 -103 139 -318q0 -213 -197 -385q-100 -88 -381 -243q-82 -45 -137 -111l-12 -2q-35 0 -72 76q-31 66 -31 106z" />
<glyph unicode="T" horiz-adv-x="700" d="M33 1034q29 57 98 162h459l12 -6q2 -9 68 -156q-57 55 -221 56q-57 0 -58 -64v-1225q0 -53 31 -75q45 -35 49 -41q-100 -29 -137 -52q-51 -31 -101 -104q-2 14 -2 39q0 51 32 89t32 60v1315q0 57 -51 58q-119 0 -211 -56z" />
<glyph unicode="U" horiz-adv-x="800" d="M33 354q0 102 91 266t91 232q0 88 -86 174q49 109 86 109t72 -109q30 -89 30 -138q0 -103 -88 -276.5t-88 -259.5t71 -163.5t157 -77.5h180q63 0 90 10v930q0 8 -18 51q-21 21 -21 66v8q10 4 23 4h139l16 -2v-33q0 -16 -17.5 -46t-17.5 -46v-996q0 -12 37 -39v-4 q0 -14 -37 -14q-63 0 -187 2t-187 2q-135 0 -232 102q-104 113 -104 248z" />
<glyph unicode="V" horiz-adv-x="1040" d="M33 1186q16 2 20 2h129q14 0 27 -4q-2 -14 -21.5 -62.5t-17.5 -60.5l121 -813q6 -45 53 -89t92 -44q94 0 144 229q100 479 102 490q94 307 289 444q98 -17 127 -76q-233 -82 -322 -399q-51 -266 -100 -535q-63 -268 -244 -268q-78 0 -156 86q-76 80 -88 160l-122 813 q-14 41 -33 127z" />
<glyph unicode="W" horiz-adv-x="1378" d="M33 1169v17q98 2 151 2q14 0 27 -4q-2 -31 -20.5 -68t-18.5 -43q0 -68 45 -350q20 -172 82 -490q31 -118 141 -118h2q57 0 94 37.5t37 95.5v813q0 18 -17 51t-17 62v12q98 2 151 2q14 0 27 -4q0 -31 -19.5 -71t-19.5 -52v-813q0 -59 43 -96t102 -37q90 0 140 231 q100 467 108 492q96 307 287 440q98 -23 127 -74l-6 -6q-231 -78 -318 -393q-49 -268 -98 -537q-63 -268 -246 -268q-61 0 -104 29q-29 18 -78 73q-53 -102 -199 -102q-94 0 -164 78q-63 70 -82 168q-6 29 -61 448q-45 340 -76 404v4q-20 23 -20 67z" />
<glyph unicode="X" horiz-adv-x="849" d="M-350 -455q0 23 18 21l-2 -2q242 29 723 1028l-299 485q-25 29 -24 88v19q18 2 22 2h129q14 0 27 -4q0 -37 -22.5 -69t-22.5 -38q0 -20 110.5 -197.5t130.5 -189.5q45 43 126 211t91 234q2 37 13 110l2 2q39 -80 98 -151v-7q0 -74 -274 -501q72 -127 141 -252 q86 -154 164 -238v-2q18 -34 18 -82v-10q-12 -2 -26 -2h-152q0 59 37 92l4 17q-10 29 -106.5 186.5t-124.5 193.5h-7q-250 -475 -301 -565q-217 -373 -370 -489q-10 -8 -25 -8q-25 0 -61.5 46t-36.5 72z" />
<glyph unicode="Y" horiz-adv-x="894" d="M33 1198q18 2 22 2h129q14 0 27 -4q0 -55 -39 -92l-4 -17q98 -231 117 -276q92 -207 129 -246q14 14 30 78q33 133 167 362.5t200 258.5q37 -20 74 -41q49 -34 57 -54h-33q-111 -10 -245 -262q-86 -162 -152 -358q-37 -111 -37 -168q0 -256 19 -293q27 -51 26 -86 q-12 -2 -178 -2q0 25 17.5 58.5t17.5 47.5l-8 312l-303 653q-33 72 -33 127z" />
<glyph unicode="Z" horiz-adv-x="782" d="M20 10q8 29 64 131q49 90 264 494q227 426 227 430q0 27 -231 27q-113 0 -203 -72q-10 12 -10 47q0 80 18.5 104.5t94.5 24.5h458q51 0 52 -18q0 -41 -256 -516.5t-256 -518.5q0 -30 109 -30h7q35 0 115 2h121q106 0 168 67q10 -14 10 -41q0 -96 -20.5 -118.5 t-112.5 -22.5h-612z" />
<glyph unicode="[" horiz-adv-x="514" d="M31 0q0 20 17.5 57t17.5 60v956q0 33 -19 88q-16 10 -16 33q10 0 32 2h31h293q-18 -33 -18 -61q0 -20 10 -52h-174q-35 0 -35 -34v-875q0 -66 45 -65h178q-14 -27 -14 -50q0 -24 20 -57h-26q-18 -2 -27 -2h-315z" />
<glyph unicode="\" horiz-adv-x="862" d="M18 1208l5 15q14 2 18 2q23 0 68 -21l2 -4q29 -14 49 -37q74 -84 176 -276q154 -291 158 -297q115 -188 333 -574v-8q-39 -45 -45 -110q-55 63 -127 190q-57 102 -112 207q-276 475 -525 913z" />
<glyph unicode="]" horiz-adv-x="546" d="M82 2q20 33 20 57q0 23 -14 50h178q45 0 45 65v860q0 49 -35 49h-174q10 31 11 52q0 29 -19 61h293h31q23 -2 33 -2q0 -12 -17.5 -52t-17.5 -71v-954q0 -31 17.5 -65t17.5 -52q-39 0 -185 2q-115 2 -184 0z" />
<glyph unicode="^" d="M41 473l205 295l-4 2l8 2l26 41l56 12l47 -12l27 -39l8 -2l-4 -4l215 -299l-64 -37l-233 250l-224 -244z" />
<glyph unicode="_" horiz-adv-x="1024" />
<glyph unicode="`" d="M184 1184l107 33l141 -213l-49 -29z" />
<glyph unicode="a" horiz-adv-x="610" d="M33 209q0 113 106 194q98 57 201.5 119t103.5 131q0 29 -29.5 57.5t-58.5 28.5h-155q-27 0 -43.5 -22.5t-30.5 -44.5q-16 59 -16 143q0 37 55 37h258q123 0 123 -236q0 -27 -3 -79t-3 -78v-307q0 -37 23.5 -79.5t25.5 -58.5l-19 -14h-276q-104 0 -178 51q-84 57 -84 158z M133 182q2 -18 2 -28q131 -57 207 -58q72 0 100 19l2 4v317l-4 6h-10q-84 0 -186 -73q-111 -78 -111 -158v-29z" />
<glyph unicode="b" horiz-adv-x="634" d="M35 1032q0 20 55 75.5t76 55.5q12 0 12 -108v-228q0 -39 115 -120q160 -115 215 -172q115 -121 115 -248q0 -168 -119 -236q-92 -53 -273 -53l-163 2l-2 991q0 8 -15.5 18.5t-15.5 22.5zM170 127q0 -18 90 -18q102 0 176 34q94 48 94 138q0 74 -132 214t-205 140 q-23 0 -23 -25v-483z" />
<glyph unicode="c" horiz-adv-x="634" d="M33 461q0 147 86 264q94 127 235 127q113 0 170.5 -71.5t57.5 -186.5q0 -78 -41 -125q-45 -53 -125 -53q-145 0 -148 76q10 35 39 104q6 4 15 4q18 -29 38.5 -55.5t63.5 -26.5q65 0 65 110q0 58 -46 93t-103 35q-109 0 -166 -113q-43 -88 -43 -209q0 -111 43 -203 q55 -114 154 -114h2q82 0 127 61q31 43 53 135q4 18 18 15q27 -16 58 -47q37 -40 37 -60q0 -82 -109 -155q-100 -66 -188 -66q-156 0 -234 152q-59 119 -59 309z" />
<glyph unicode="d" horiz-adv-x="620" d="M16 287q0 127 119 245q57 57 223 173q119 84 119 122v183l-26 22q88 84 139 135v-1167h-70h-69q-199 0 -295 45q-139 66 -140 242zM106 281q0 -94 105 -140q74 -32 178 -32h6q92 0 92 18v483q0 25 -22 25q-76 0 -217.5 -139.5t-141.5 -214.5z" />
<glyph unicode="e" horiz-adv-x="686" d="M37 420q0 180 69 293q84 139 252 139q104 0 196.5 -99.5t98.5 -205.5q-158 -102 -469 -311q8 -49 59.5 -82t104.5 -33q111 0 154 67q31 80 61 162l8 4q54 -24 93 -102q-4 -88 -114 -170t-200 -82q-313 0 -313 420zM129 436q0 -88 29 -96q123 80 366 242l4 8 q-4 68 -75 117q-63 47 -136 47q-90 0 -145 -119q-43 -94 -43 -199z" />
<glyph unicode="f" horiz-adv-x="557" d="M29 754q0 72 4 98q10 0 34.5 -2t36.5 -2q51 0 60 6q16 8 16 51q0 109 105.5 241t210.5 132q20 0 69 -100l35 -70q8 -16 10 -29v-2l-2 2q-35 35 -84 35q-88 0 -163.5 -67.5t-75.5 -153.5q0 -47 77 -47q14 0 43 3t44 3q90 0 90 -80q0 -16 -2 -49t-2 -49q-4 33 -76 33h-129 q-45 0 -45 -29v-918q0 -68 -43 -188q-49 -141 -101 -143l-2 -2q-29 27 -55 53q-35 35 -35 63l4 11q127 80 127 219v905q0 33 -71 33q-14 0 -39 -2t-37 -2q-4 18 -4 47z" />
<glyph unicode="g" horiz-adv-x="677" d="M29 385q0 172 59 301q78 166 231 166q27 0 60 -12q4 53 8 104q8 74 21 98l12 2q41 0 72.5 -25.5t33.5 -62.5q-29 -63 -67 -155q182 -109 182 -355q0 -168 -74 -284q-86 -135 -243 -144q-14 -33 -17 -100q111 -2 180.5 -71.5t69.5 -180.5q0 -129 -92 -201 q-81 -65 -211 -65h-4l-10 2v123q41 -2 53 -2q68 0 107.5 45t39.5 115q0 74 -75 112q-61 31 -144 31q-37 0 -67 -6q68 119 67 223q-90 16 -145 137q-47 100 -47 205zM152 399q0 -70 22 -127q31 -75 87 -75h1q6 39 14 77q10 57 33 58q76 0 76 -51q0 -20 -8 -52 q-10 -41 -12 -51q174 0 174 246q0 244 -113 278q-12 -41 -47 -118h-2q-53 0 -76 18l-2 4q14 41 37 125h-4q-98 0 -148 -123q-32 -87 -32 -202v-7z" />
<glyph unicode="h" horiz-adv-x="686" d="M70 0v33q35 88 34 94v891q0 16 -17 27.5t-17 23.5q0 27 120 121l15 4l8 -10v-428q78 96 223 96q123 0 187 -115q49 -90 49 -225q0 -154 -115 -452t-115 -476l-8 -18q-86 68 -86 170q0 127 106.5 389t106.5 422q0 76 -26 133q-35 76 -103 76q-160 0 -207 -138 q-24 -69 -24 -257v-15q0 -223 16 -258q27 -59 27 -86q-12 -2 -27 -2h-147z" />
<glyph unicode="i" horiz-adv-x="311" d="M76 1079q0 37 24.5 60.5t61.5 23.5q35 0 58.5 -24.5t23.5 -59.5q0 -82 -99 -82q-29 0 -49 28t-20 54zM78 -2q0 23 20 84q14 43 15 41v600q0 18 -17.5 57t-17.5 70h106l72 -2q0 -53 -27 -84q-6 -6 -12 -41v-600q0 -12 19.5 -49t19.5 -74q-12 -2 -27 -2h-151z" />
<glyph unicode="j" horiz-adv-x="327" d="M-221 -459q0 27 86 66q113 53 158 90q84 72 83 174v852q0 14 -14 47l-4 4q-16 39 -16 78h98q8 0 80 -2v-8q0 -43 -21 -68l-2 -6q-24 -30 -24 -345v-26q0 -88 3 -264t3 -264q0 -141 -82 -244q-47 -57 -152 -127q-82 -55 -81 -82zM76 1079q0 37 24.5 60.5t61.5 23.5 q35 0 58.5 -24.5t23.5 -59.5q0 -82 -99 -82q-29 0 -49 28t-20 54z" />
<glyph unicode="k" horiz-adv-x="618" d="M31 0v9q0 56 24 77q10 25 11 39v881q0 14 -17 26q-18 6 -18 25q0 20 55 68.5t80 56.5l6 -11v-643q0 -43 23 -43q12 0 136 129t138 156l-10 14q-47 14 -45 68h241v-10v-15q-2 -8 -2 -12q-23 -20 -67 -63l-240 -263q84 -154 109 -204q59 -117 92 -213q25 -86 82 -256 q12 -29 47 -82t45 -84l-10 -2q-27 0 -85.5 24.5t-68.5 44.5q-29 59 -121 353q-68 215 -166 329l-4 2q-23 -2 -53.5 -35.5t-42.5 -60.5v-180q0 -12 19.5 -51t19.5 -72q-12 -2 -27 -2h-151z" />
<glyph unicode="l" horiz-adv-x="296" d="M63 0q0 6 21 84l4 4q10 23 10 39v889q0 14 -16 26q-18 6 -19 25q0 20 54.5 68.5t79.5 56.5q6 -12 6 -1065q0 -16 19.5 -52t19.5 -73q-18 -2 -23 -2h-156z" />
<glyph unicode="m" horiz-adv-x="1173" d="M29 6v25q0 39 30 61q6 47 29 121q29 90 35 121q47 217 88 315q86 203 217 203q98 0 160 -64q68 63 184 64q127 0 215 -182q53 -113 111 -353q49 -213 71 -235v-6q15 -23 15 -58l-2 -12q-27 0 -90 -2h-91l-12 2v6q0 31 11.5 45.5t23.5 30.5q-84 672 -266 672 q-74 0 -96 -39q-16 -29 -17 -109v-485q0 -16 19.5 -52t19.5 -73q-12 -2 -27 -2h-151q0 -6 20 84l4 4q10 25 11 39v485q0 72 -19 105q-25 43 -92 43q-106 0 -170 -291q-6 -29 -59 -385l6 -6l10 -2l2 -4q18 -14 19 -58v-8q-14 -2 -31 -2h-156q-4 0 -22 2z" />
<glyph unicode="n" d="M29 848q0 12 45 12q37 0 113.5 -3t115.5 -3q137 0 228.5 -101.5t91.5 -240.5q0 -270 -103 -428q-49 -78 -71 -188q-8 -47 -23 -203q-2 -16 -10 -19q-33 8 -63.5 50.5t-30.5 76.5q0 117 95 341.5t95 369.5q0 88 -61.5 166t-147.5 78h-84q-23 0 -49 -8v-621q0 -16 19.5 -52 t19.5 -73q-12 -2 -27 -2h-151v33q35 82 35 92v678q0 12 -18.5 23.5t-18.5 21.5z" />
<glyph unicode="o" horiz-adv-x="651" d="M109 719q82 143 229 143q152 0 227 -151q62 -119 62 -287q0 -158 -66 -277q-80 -145 -223 -145q-152 0 -234 152q-65 119 -65 281q0 163 70 284zM147 434q0 -111 41 -198q51 -111 150 -111q98 0 147 115q37 85 37 198q0 115 -37 199q-49 111 -147 111q-100 0 -152 -113 q-39 -86 -39 -201z" />
<glyph unicode="p" horiz-adv-x="634" d="M39 825q14 29 127 29q51 0 139 -2q129 -2 227 -78q107 -82 107 -207q0 -174 -115 -313q-63 -76 -215 -188q-115 -86 -114 -127v-357q-14 -29 -58.5 -56.5t-77.5 -31.5l-8 6v-2l10 35l5 2q16 35 16 62v1171l-25 29v4zM184 203q0 -57 29 -58q121 0 231 154q105 145 105 270 q0 98 -107 148q-80 37 -190 37q-68 0 -68 -15v-536z" />
<glyph unicode="q" horiz-adv-x="634" d="M49 567q0 186 137 248q86 39 299 39q103 0 103 -27q0 -20 -43 -59l2 -1192q12 -25 31 -78l-9 -6l-4 2h-8q-88 37 -115 86v404q0 37 -102 108q-131 94 -188 166q-102 131 -103 309zM139 569q0 -106 86 -235q94 -141 195 -141q22 -1 22 22v524q0 14 -59 15q-98 0 -166 -41 q-78 -51 -78 -144z" />
<glyph unicode="r" horiz-adv-x="542" d="M29 848q0 12 43 12q412 0 444 -26q16 -12 16 -80q0 -18 -10 -64q-88 66 -221 66h-82q-20 0 -49 -8v-621q0 -14 19.5 -51t19.5 -74q-12 -2 -27 -2h-151v33q0 16 17.5 44.5t17.5 47.5v678q0 12 -18.5 24.5t-18.5 20.5z" />
<glyph unicode="s" horiz-adv-x="686" d="M33 279q0 155 164 155h2q114 0 114 -92q0 -43 -18 -55q-39 43 -64 43q-31 0 -56 -19.5t-25 -50.5q0 -57 63 -102q57 -39 119 -39q66 0 135 41q78 45 78 106q0 90 -125 140q-117 39 -234 77q-125 55 -125 164q0 131 101 176q63 29 215 29q51 0 123 -29q86 -35 86 -75 q0 -82 -41 -125l-15 4q-55 84 -77 100q-37 29 -125 29q-45 0 -97 -27q-57 -31 -57 -72q0 -51 125 -92q182 -61 231 -92q125 -76 125 -213q0 -102 -114 -184q-106 -76 -213 -76q-117 0 -206 81t-89 198z" />
<glyph unicode="t" horiz-adv-x="413" d="M98 250v813q12 25 39 55q43 47 45 51q18 2 19 -28q0 -33 -2 -101v-98q0 -78 6 -96q12 -6 110.5 -8t112.5 -14.5t14 -75.5q0 -58 -10 -66q-102 66 -151 66q-12 0 -74 -5v-247q-2 -176 -2 -246q0 -53 71 -94q61 -35 119 -35q0 -27 -22 -74q-25 -53 -47 -55 q-227 90 -228 258z" />
<glyph unicode="u" d="M33 270q0 68 52 167.5t52 148.5q0 59 -45 139q4 37 78 106l14 5l13 -5q45 -119 45 -215q0 -72 -49.5 -186.5t-49.5 -161.5q0 -68 57.5 -111.5t127.5 -43.5h67q51 0 80 6v604q0 8 -4 27q-35 49 -35 100q45 2 109 2h69v-33q-35 -74 -34 -94v-668q0 -12 36 -39v-4 q0 -16 -73 -16q-229 0 -330 33q-180 59 -180 239z" />
<glyph unicode="v" horiz-adv-x="667" d="M29 717l55 49l2 4l59 47q29 -45 52 -235q27 -250 41 -316q35 -157 99 -157h1q98 0 145 278q31 182 31 379l-2 10q-35 25 -33 62v14h193q2 -19 2 -23q0 -16 -17 -59q-23 -59 -22 -59q-35 -209 -68 -416q-63 -295 -213 -295q-133 0 -188 150q-27 72 -60 309 q-29 199 -77 258z" />
<glyph unicode="w" horiz-adv-x="1085" d="M20 719q18 25 56 47l2 4l59 47q29 -39 56 -227q33 -248 49 -318q41 -159 109 -159h1q55 0 105.5 35.5t50.5 89.5v489q0 16 -17.5 55t-17.5 70h178v-7q0 -46 -24 -73q-16 -33 -17 -45v-481q0 -51 39 -92t90 -41q102 0 158 282q27 186 55 373q-14 18 -26.5 36.5t-10.5 47.5 h193q2 -11 2 -29q0 -33 -23 -57q-53 -225 -104 -449q-94 -317 -244 -317q-57 0 -102 29q-20 14 -80 69h-4q-61 -94 -207 -94q-129 0 -186 150q-29 74 -64 309q-29 197 -76 256z" />
<glyph unicode="x" horiz-adv-x="663" d="M25 0q0 37 55 86v2l205 342q-43 76 -84 152q-55 80 -133 110l-5 4q4 25 49.5 69t69.5 46q20 -14 80 -133q37 -78 76 -156l86 140q65 107 65 130q0 5 -19 19t-19 41h102q4 0 76 -2q0 -35 -37 -78q-43 -49 -105 -164q-45 -88 -92 -176l203 -338q4 -6 37 -41q20 -20 20 -53 h-149q-16 0 -29 2q0 20 12.5 36.5t12.5 20.5q0 10 -162 281q-45 -72 -88 -143q-68 -113 -70 -138q20 -33 21 -57q-41 -2 -97 -2h-81z" />
<glyph unicode="y" horiz-adv-x="614" d="M-41 -358q4 33 82 79q98 59 137 103q74 84 74 209q0 59 -16 106l-160 463q-25 72 -80 92l2 4q4 27 45 68q35 35 66 49l4 -4q6 -31 51 -152q55 -160 166 -481q43 156 88 314q61 229 61 294q0 16 -14 23q-23 20 -21 43h103q4 0 76 -2q0 -31 -15 -49q-20 -23 -24 -37 l-195 -666q-2 -18 -6 -55q-16 -119 -98 -262v-2q-20 -29 -115 -115q-82 -76 -98 -110z" />
<glyph unicode="z" horiz-adv-x="542" d="M2 0q25 53 231 391q195 317 195 334q0 18 -106 18q-152 0 -222 -69q-8 16 -8 88q0 53 17.5 72.5t291.5 19.5q185 0 185 -25q0 -61 -186.5 -357t-186.5 -337q0 -26 65 -26h5q129 0 229 73q10 -16 10 -57q0 -86 -14 -100q-25 -25 -184 -25h-322z" />
<glyph unicode="{" horiz-adv-x="714" d="M31 0v33q35 78 35 94v891q0 14 -17 26q-18 6 -18 25q0 27 121 121l14 4l8 -10v-381q96 115 227 115q186 0 261 -117q59 -92 59 -289q0 -154 -100 -360q-92 -174 -187 -347q-100 -197 -100 -321q0 -14 -12 -16l-3 2q-35 -2 -69 61q-29 55 -33 96l2 4q0 35 100 219 q147 264 189 351q102 211 102 311q0 293 -211 293q-96 0 -162.5 -69.5t-66.5 -166.5v-442q0 -12 19.5 -51t19.5 -74q-12 -2 -27 -2h-151z" />
<glyph unicode="|" horiz-adv-x="806" d="M328 -96v1323q0 25 32.5 68.5t57.5 50.5q14 -6 14 -33v-1463q-4 -12 -8 -28q-20 25 -70 63q-27 12 -26 19z" />
<glyph unicode="}" horiz-adv-x="794" d="M98 250v813q12 25 39 55q43 47 45 51q18 2 19 -28q0 -33 -2 -101v-98q0 -78 6 -96q10 -6 53 -6q-2 -2 242 -2q215 0 215 -25q0 -61 -102.5 -201.5t-102.5 -181.5q0 -25 80 -90q180 -148 180 -367q0 -174 -96 -290q-102 -121 -275 -121q-86 0 -163.5 40t-116.5 113 q10 27 48 58.5t64 38.5q20 -129 168 -129q113 0 185 96q66 88 65 205q0 109 -55 188q-47 68 -59 80q-31 35 -80 57q-25 12 -54 13q-16 0 -44.5 -4.5t-39.5 -2.5q25 51 134 236q98 162 98 180q-20 2 -121 10q-78 6 -147 7q-12 0 -74 -5v-245q-2 -178 -2 -248q0 -53 71 -94 q61 -35 119 -35q0 -27 -22 -74q-25 -53 -47 -55q-227 90 -228 258z" />
<glyph unicode="~" horiz-adv-x="749" d="M53 489q0 70 19 82q84 57 131 58q70 0 121 -35t88 -35q25 0 57 8q18 4 62 40t59 40q20 -14 20 -55q0 -14 -26 -53q-61 -82 -148 -82q-72 0 -114.5 31.5t-114.5 31.5q-29 0 -81 -28.5t-58 -28.5q-14 0 -15 26z" />
<glyph horiz-adv-x="714" d="M31 0v33q35 78 35 94v891q0 14 -17 26q-18 6 -18 25q0 27 121 121l14 4l8 -10v-381q96 115 227 115q186 0 261 -117q59 -92 59 -289q0 -154 -100 -360q-92 -174 -187 -347q-100 -197 -100 -321q0 -14 -12 -16l-3 2q-35 -2 -69 61q-29 55 -33 96l2 4q0 35 100 219 q147 264 189 351q102 211 102 311q0 293 -211 293q-96 0 -162.5 -69.5t-66.5 -166.5v-442q0 -12 19.5 -51t19.5 -74q-12 -2 -27 -2h-151z" />
<glyph unicode="&#xa1;" horiz-adv-x="260" d="M53 1008q0 63 78 71v2l2 -2q35 0 62.5 -24.5t27.5 -59.5q0 -31 -25.5 -49t-58.5 -18h-18q-29 0 -48.5 25.5t-19.5 54.5zM66 -113q0 129 9 385t9 383t12 195l27 -41q49 -29 57 -49q2 -8 2 -72q0 -119 11.5 -356.5t11.5 -356.5q0 -29 -45 -74.5t-74 -45.5q-20 -1 -20 32z " />
<glyph unicode="&#xa2;" horiz-adv-x="634" d="M35 557q0 137 84 246q94 117 233 117h27q29 86 37 102q27 43 86 57l12 -16q-23 -76 -47 -160q131 -49 131 -211q0 -76 -68 -76q-37 0 -36 23q0 14 7 43t7 43q0 47 -72 84q-63 -184 -184 -555q29 -18 59 -18q66 0 119 37.5t53 99.5q0 16 19 14q25 -16 55 -45 q37 -35 37 -55q0 -68 -102 -117q-88 -43 -170 -43q-55 0 -103 23q-35 -109 -76 -175q-16 61 -53 97l-2 8q20 68 45 143q-98 127 -98 334zM137 522q0 -96 37 -180q74 213 172 489q-209 -12 -209 -309z" />
<glyph unicode="&#xa3;" horiz-adv-x="792" d="M25 371q0 106 28 106q2 0 21.5 -12t29.5 -12l117 2q-10 57 -33 120q-18 0 -57 -9t-61 -9q-16 0 -17 23q0 106 29 106q2 0 21.5 -12t31.5 -12h23q-27 84 -27 147q0 156 103.5 274.5t254.5 118.5q186 0 252 -112v-17q0 -23 -30.5 -62.5t-51.5 -41.5l-12 10q-45 96 -178 96 q-96 0 -157.5 -83t-61.5 -181q0 -66 26 -149q86 0 254 12h-2q27 8 80 20q12 -6 13 -26q0 -27 -9 -68q-8 -53 -22 -53q-12 0 -35 20.5t-66 20.5q20 0 -184 -6q16 -41 39 -125q53 0 156 10h-2q12 0 38.5 9t41.5 9q12 0 12 -28q0 -25 -6 -66q-10 -51 -23 -51q-12 0 -35.5 20.5 t-66.5 20.5q-14 0 -107 -4q-2 -51 -20 -131q-20 -96 -25 -129h328q45 0 67.5 21.5t47.5 45.5l14 -22q-16 -45 -31 -90q-25 -63 -55 -64h-539l-10 17q0 53 49 164.5t49 183.5q-98 -6 -129 -6q-10 0 -28.5 -8.5t-28.5 -8.5q-16 0 -16 21z" />
<glyph unicode="&#xa4;" horiz-adv-x="669" d="M23 842l83 51l95 -141q53 39 121 39q66 0 120 -39l127 159l68 -47l-150 -155q49 -63 50 -142q0 -68 -41 -125l98 -149l-49 -29l-111 121q-45 -29 -94 -29q-66 0 -121 43l-143 -149l-49 29l141 176q-47 68 -47 145q0 55 31 102zM201 594q0 -49 39 -87t88 -38q45 0 79.5 32 t34.5 77q0 49 -37.5 81.5t-87.5 32.5q-45 0 -80.5 -27.5t-35.5 -70.5z" />
<glyph unicode="&#xa5;" horiz-adv-x="894" d="M33 1198q18 2 22 2h129q14 0 27 -4q0 -55 -39 -92l-4 -17q98 -231 117 -276q92 -207 129 -246q14 14 30 78q33 133 167 362.5t200 258.5q37 -20 74 -41q49 -33 57 -54h-33q-111 -10 -245 -262q-84 -162 -152 -358l-2 -4q70 10 92 16h-2q43 8 82 23q20 -4 20 -80 q1 -70 -24 -66l-70 11q-55 8 -127 0q-6 -35 -6 -68q0 -256 19 -293q27 -51 26 -86q-12 -2 -178 -2q0 25 17.5 58.5t17.5 47.5l-8 312l-7 12q-45 -10 -135 -24q-8 -2 -30.5 -14.5t-30.5 -10.5q-16 2 -19 72v34q0 10 5.5 22.5t13.5 12.5q14 0 53 -4q20 -4 100 4l-253 549 q-33 72 -33 127z" />
<glyph unicode="&#xa6;" horiz-adv-x="1024" />
<glyph unicode="&#xa7;" horiz-adv-x="856" d="M12 311q0 119 92 191q84 66 211 65q104 0 183.5 -64.5t79.5 -164.5q0 -43 -41 -102.5t-82 -59.5q-25 0 -45.5 26.5t-24.5 53.5l14 14q74 -6 74 78q0 59 -48 93t-114 34q-205 0 -205 -178q0 -104 121 -162q94 -45 213 -45q106 0 193 57q98 66 98 166q0 115 -162 205 q-150 78 -301 156q-162 102 -162 244q0 147 160 237q74 41 213 41q68 0 146 -31q96 -37 96 -94q0 -100 -39 -135l-8 6l-4 12l-4 2q-27 63 -91.5 100.5t-138.5 37.5q-72 0 -141 -52q-76 -53 -76 -122q0 -109 162 -193q150 -74 301 -149q162 -105 162 -261q0 -152 -137 -241 q-119 -76 -281 -76q-160 0 -279 76q-135 86 -135 235z" />
<glyph unicode="&#xa8;" horiz-adv-x="610" d="M88 1055q0 70 96 69q29 0 52.5 -24t23.5 -53q0 -33 -26.5 -56.5t-57.5 -23.5q-37 0 -62.5 24.5t-25.5 63.5zM346 1055q0 70 96 69q29 0 52.5 -24t23.5 -53q0 -33 -26.5 -56.5t-57.5 -23.5q-37 0 -62.5 24.5t-25.5 63.5z" />
<glyph unicode="&#xa9;" horiz-adv-x="1048" d="M47 555q0 211 131 367q139 166 346 165q207 0 346 -165q131 -156 131 -367t-131 -367q-139 -165 -346 -165t-346 165q-131 156 -131 367zM117 559q0 -178 108 -313q117 -145 293 -146q174 0 291 146q109 135 109 313q0 180 -109 313q-117 146 -291 146q-176 0 -293 -146 q-109 -133 -108 -313zM236 584q0 127 80.5 230.5t203.5 103.5q98 0 149.5 -55.5t49.5 -141.5q-2 -68 -41 -109t-107 -41q-27 0 -88 31q20 33 43 70q29 -23 54 -23q68 2 67 82q0 51 -43 82t-96 31q-98 0 -152 -96q-43 -80 -43 -187q0 -102 43 -182q51 -100 144 -100 q74 0 106 40q20 27 45 111q2 8 4 8q14 0 50 -35.5t36 -50.5q0 -72 -90 -121q-79 -43 -155 -43q-141 0 -209 134q-51 104 -51 262z" />
<glyph unicode="&#xaa;" horiz-adv-x="1024" />
<glyph unicode="&#xab;" horiz-adv-x="694" d="M59 424q0 37 76 172q66 121 103 168q20 27 57 27q47 0 53 -23q-31 -72 -92 -170q-51 -84 -102 -166q55 -84 108 -168q65 -100 96 -174q2 -29 -53 -29q-35 0 -54.5 20.5t-105.5 172.5t-86 170zM330 424q0 37 76 172q66 121 102 168q20 27 57 27q47 0 53 -23 q-31 -72 -92 -170q-51 -84 -102 -166q55 -84 108 -168q66 -100 97 -174q2 -29 -54 -29q-35 0 -54 20.5t-105 172.5t-86 170z" />
<glyph unicode="&#xac;" horiz-adv-x="1024" />
<glyph unicode="&#xad;" horiz-adv-x="700" d="M104 481v35q0 61 15 62q2 0 21.5 -10.5t33.5 -10.5q33 0 191 41q150 39 194 57h-2q25 14 76 41q18 -2 18 -86l2 -39q1 -65 -22 -65q-12 0 -29.5 18.5t-38.5 18.5q-76 0 -192 -37q-94 -31 -187 -60q-10 -4 -32.5 -19t-30.5 -15q-16 0 -17 69z" />
<glyph unicode="&#xae;" horiz-adv-x="1048" d="M47 555q0 211 131 367q139 166 346 165q207 0 346 -165q131 -156 131 -367t-131 -367q-139 -165 -346 -165t-346 165q-131 156 -131 367zM117 559q0 -178 108 -313q117 -145 293 -146q134 0 238 90q-113 49 -115 64q-4 33 -72 240q-16 51 -92 51q-20 0 -41 -8h-2 q18 35 19 59q0 6 -3.5 20.5t-3.5 20.5l5 4q8 -2 47 -18q33 -14 55 -13q145 14 145 115q0 76 -90 98q-51 14 -172 15q-35 0 -35 -7v-505q0 -8 12.5 -29t12.5 -41h-16h-97q0 14 10.5 37.5t10.5 32.5v499q0 12 -11.5 30.5t-9.5 33.5v8h74q172 0 244 -20q127 -35 127 -146 q0 -74 -43 -113q-29 -27 -119 -63q57 -78 74 -121q31 -82 53 -129q4 -8 59 -90q135 139 136 344q0 180 -109 313q-117 145 -291 146q-176 0 -293 -146q-109 -133 -108 -313z" />
<glyph unicode="&#xaf;" horiz-adv-x="512" d="M0 887v76h469v-76h-469z" />
<glyph unicode="&#xb0;" horiz-adv-x="477" d="M29 1047q0 82 59 136t141 54q90 0 152.5 -66.5t62.5 -156.5q0 -82 -57 -146.5t-139 -64.5q-90 0 -154.5 75.5t-64.5 168.5zM109 1040q0 -49 38.5 -87t88.5 -38q45 0 79.5 32t34.5 77q0 49 -37 82t-88 33q-45 0 -78 -27q-39 -27 -38 -72z" />
<glyph unicode="&#xb1;" horiz-adv-x="729" d="M70 485q0 78 14 78q2 0 22.5 -10t32.5 -10q33 0 78 12l78 20q0 20 -2 58.5t-2 58.5q0 49 24 99q27 57 70 67q18 -8 18 -108q0 -25 -2 -74t-2 -74q43 10 125 39h-2q25 14 76 41q20 -2 20 -100q1 -90 -22 -90q-12 0 -29.5 18t-38.5 18q-20 0 -129 -30v-86.5v-83.5 q0 -80 -4 -92q-10 2 -53 18t-49 20l2 197q-76 -18 -96 -25q-63 -18 -83 -33.5t-30 -15.5q-16 0 -16 88zM88 113v34q0 10 4 23.5t14 11.5q14 0 52 -4q33 -4 190 15q150 18 195 30h-2q43 8 82 21q18 -4 18 -80q0 -68 -23 -66l-71 11q-29 4 -60 4q-63 0 -163 -19l-156 -28 q-10 -2 -31.5 -14.5t-32.5 -10.5q-16 2 -16 72z" />
<glyph unicode="&#xb2;" horiz-adv-x="808" d="M16 369q0 133 95 301q55 96 176 254q98 127 102 155l-14 11q-131 0 -189 -43q-16 -14 -47 -43q-66 86 -84 178l8 10q25 4 62 4h700q25 0 41 -6v-6q0 -18 -39 -86t-57 -90q-53 84 -215 82q-442 -473 -442 -723q0 -115 87 -189t201 -74q98 0 176 72t78 168q0 80 -58 138.5 t-138 58.5q-37 0 -80 -33t-43 -70q0 -10 8 -24v-6l-6 -5q-25 14 -61.5 51.5t-36.5 57.5q0 66 82 100q63 27 139 27q125 0 209 -85t84 -210q0 -158 -97.5 -251t-255.5 -93t-271.5 106.5t-113.5 262.5z" />
<glyph unicode="&#xb3;" horiz-adv-x="710" d="M25 2q0 33 28 47q45 23 45 74v950q0 27 -16 65t-19 56q8 0 27 2h27h467q27 0 45 -4q14 -23 39.5 -86.5t27.5 -85.5l-4 -8q-31 27 -58.5 49t-86.5 22h-307q-37 0 -37 -75q0 -31 -3 -90.5t-3 -90.5q0 -197 43 -196q37 0 143 60.5t135 60.5q14 0 14 -113q0 -90 -18 -96 l-33 30q-16 16 -41 17q-45 0 -141 -57.5t-96 -92.5v-276q0 -53 41 -53q86 0 211 -111q106 -104 213 -209q121 -111 198 -110q8 0 23 6q20 8 20 -21t-41 -127q-113 0 -239 121q-115 113 -228 225q-147 119 -305 117h-71z" />
<glyph unicode="&#xb4;" horiz-adv-x="651" d="M256 1004l141 213l107 -33l-199 -209z" />
<glyph unicode="&#xb5;" horiz-adv-x="1052" d="M-68 -365q61 90 80 197q18 178 37 358q31 289 86 445q80 217 215 217q59 0 101 -18q29 -10 88 -54q51 45 89 58.5t105 13.5q131 0 207 -199q55 -145 82 -411q14 -172 29 -344q8 -55 28 -140q29 -100 35 -135l-12 -4q-31 0 -103 45q-78 45 -77 72v90q0 926 -201 926 q-59 0 -92 -43t-33 -105v-477q0 -18 20.5 -52t18.5 -73q-12 -2 -27 -2h-151q0 20 20 84l4 4q10 25 11 39v477q0 57 -35 102.5t-90 45.5q-123 0 -174 -357q-20 -143 -33 -463q-2 -86 -13 -196q-10 -29 -91 -66t-117 -37q-2 0 -7 2z" />
<glyph unicode="&#xb6;" horiz-adv-x="518" d="M33 473q0 147 78 256q88 123 229 123q70 0 131 -37q70 -42 70 -108q0 -33 -34 -71t-67 -44l-4 6q0 78 -10 104q-20 45 -90 46q-86 0 -146 -95q-53 -84 -53 -174q0 -154 101 -311q49 -78 186 -234q100 -113 100 -157q0 -37 -24 -90l-4 -4q-12 -39 -39 -62l-2 2 q-6 90 -115 232q-174 225 -201 268q-106 174 -106 350z" />
<glyph unicode="&#xb7;" horiz-adv-x="294" d="M23 553q0 45 35.5 71.5t80.5 26.5q49 0 87 -32.5t38 -81.5q0 -45 -34.5 -77t-79.5 -32q-49 0 -88 38t-39 87z" />
<glyph unicode="&#xb8;" horiz-adv-x="571" d="M27 401q0 139 82 285q94 166 223 166q111 0 176 -60t65 -171q0 -90 -54 -183.5t-132 -150.5q-55 -31 -111 -60q-74 -43 -75 -88q23 -49 196 -258q156 -188 156 -235q0 -80 -59 -135h-7q-20 31 -50.5 98t-51.5 98q-117 162 -233 322q-125 193 -125 372zM115 449 q0 -123 35 -187q102 25 210.5 136.5t108.5 211.5q0 123 -133 123q-98 0 -164 -96q-57 -86 -57 -188z" />
<glyph unicode="&#xb9;" horiz-adv-x="368" d="M102 553q0 2 19 61l4 2q16 39 16 175q0 45 -3 135t-3 135q0 8 -15.5 18.5t-15.5 18.5q0 14 50.5 52t68.5 38l8 -6l-2 -537q0 -10 18.5 -36.5t18.5 -53.5q-12 -2 -24 -2h-140z" />
<glyph unicode="&#xba;" horiz-adv-x="774" d="M33 682q0 178 112 338q123 176 293 176q154 0 254 -113q94 -108 94 -264q0 -133 -73 -225q-80 -100 -209 -100q-100 0 -171 73.5t-71 173.5v56q45 78 100 133q37 -6 58 -43l6 -4l41 -68l-8 -12l-2 2q-98 -2 -99 -64q0 -59 43 -105t103 -46q84 0 137 74q49 68 49 155 q0 111 -71.5 189.5t-180.5 78.5q-121 0 -217 -145q-84 -131 -84 -260q0 -158 111 -285q47 -55 233 -202q154 -121 211 -222q-4 -35 -28.5 -73.5t-53.5 -46.5l-8 16q-4 49 -153 170q-190 156 -271 256q-145 182 -145 387z" />
<glyph unicode="&#xbb;" horiz-adv-x="708" d="M98 90q31 74 97 174q53 84 108 168l-192 336q14 23 51 23q41 0 57 -27l141 -242q37 -63 37 -98q0 -16 -85 -168t-104.5 -173.5t-55.5 -21.5q-53 0 -54 29zM369 90q31 74 96 174q53 84 108 168l-192 336q14 23 51 23q41 0 57 -27l142 -242q37 -63 37 -98q0 -16 -85 -168 t-104.5 -173.5t-56.5 -21.5q-53 0 -53 29z" />
<glyph unicode="&#xbc;" horiz-adv-x="860" d="M41 553q0 2 18 61l4 2q16 39 17 175q0 45 -3 135t-3 135q0 8 -15.5 18.5t-15.5 18.5q0 14 50 52t69 38l8 -6l-2 -537q0 -10 18.5 -36.5t18.5 -53.5q-12 -2 -25 -2h-139zM125 18q39 117 233 609q205 518 224 538q63 61 116 62l11 -2q4 -7 6 -15q4 -20 -236 -616 q-203 -500 -284 -694q-23 63 -68 110zM444 248q0 8 52 80q61 84 63 90q45 72 78 166q6 14 12 24q23 31 76 31q8 -2 20 -4q4 -12 3 -19q-4 -27 -93 -196q-10 -23 -84 -121h2h103l-2 63q0 10 88 70l2 -133h76l-2 -82h-76v-192q0 -35 -21 -35q-12 0 -44.5 23.5t-32.5 35.5 q0 6 10 25v143h-215q-14 18 -15 31z" />
<glyph unicode="&#xbd;" horiz-adv-x="942" d="M41 553q0 2 18 61l4 2q16 39 17 175q0 45 -3 135t-3 135q0 8 -15.5 18.5t-15.5 18.5q0 14 50 52t69 38l8 -6l-2 -537q0 -10 18.5 -36.5t18.5 -53.5q-12 -2 -25 -2h-139zM125 18q39 117 233 609q205 518 224 538q63 61 116 62l11 -2q4 -7 6 -15q4 -20 -236 -616 q-203 -500 -284 -694q-23 63 -68 110zM477 0q2 29 21 76q31 41 92 90q51 41 104 80q127 104 127 200q0 82 -119 82q-84 0 -129 -118l-6 -7q-20 10 -41.5 41t-21.5 52q0 37 82 82q76 41 116 40q201 0 201 -184q0 -98 -65 -172q-23 -25 -144 -119q-37 -27 -41 -45q8 -4 21 -4 q133 0 205 49q10 -16 10 -57q0 -53 -10 -66q-18 -20 -158 -20h-244z" />
<glyph unicode="&#xbe;" horiz-adv-x="970" d="M23 608q8 16 35.5 36t47.5 24q10 -53 84 -54q68 0 107 35t39 82q0 45 -31 80q-37 41 -96 41q-37 0 -74 -18l-8 2v63q29 14 84 45q82 47 82 115q0 55 -76 55q-78 0 -113 -78q-16 4 -36.5 23.5t-20.5 30.5q0 37 65.5 67.5t133.5 26.5q57 -4 94 -45q31 -37 31 -80 q0 -104 -95 -148q25 -8 70 -32q76 -47 76 -152q0 -80 -63.5 -133t-172.5 -53q-113 0 -163 67zM227 18q39 117 234 609q205 518 223 538q63 61 117 62l10 -2q4 -7 6 -15q4 -20 -235 -616q-203 -500 -285 -694q-23 63 -68 110zM547 248q0 8 51 80q61 84 64 90q45 72 77 166 q6 14 13 24q23 31 75 31q8 -2 21 -4q4 -12 2 -19q-4 -27 -92 -196q-10 -23 -84 -121h2h102l-2 63q0 10 88 70l2 -133h76l-2 -82h-76v-192q0 -35 -20 -35q-12 0 -45 23.5t-33 35.5q0 6 10 25v143h-215q-14 18 -14 31z" />
<glyph unicode="&#xbf;" horiz-adv-x="608" d="M57 92q0 162 64 230v2q80 94 160 190q100 119 100 215q0 14 -5 42t-5 42q0 27 59 27q70 0 70 -142q0 -18 -23 -90q-25 -80 -110 -178q-135 -154 -144 -164q-70 -98 -69 -192q0 -111 163 -111q76 0 121 51q29 33 62 119l2 2q23 -6 51.5 -49t28.5 -68q0 -47 -109 -108 q-100 -55 -156 -55q-260 -1 -260 237zM338 1010q0 63 78 71v2l2 -2q33 0 60.5 -24.5t27.5 -57.5q0 -70 -82 -69h-18q-29 0 -48.5 25.5t-19.5 54.5z" />
<glyph unicode="&#xc0;" horiz-adv-x="763" d="M-131 -336q16 14 72 41q92 131 143 535q29 289 57 579q14 119 82 234q82 143 183 143q127 0 200 -135q55 -104 66 -250q6 -188 12 -379q12 -262 45 -354q23 -27 21 -76q-12 -2 -27 -2h-152q0 2 21 84l4 4q10 25 10 39v233q0 59 -47 60q-10 0 -165.5 -48t-164.5 -55 q-29 -18 -61 -215q-23 -125 -43 -249q-12 -47 -72 -201q-39 -100 -43 -109q-33 -80 -51 -92l-10 4q-80 96 -80 209zM190 1448l107 33l141 -213l-49 -29zM215 522q0 -47 8 -86q127 39 176 56q139 47 154 67q18 29 18 100q0 143 -24 250q-39 174 -131 174q-113 0 -166 -233 q-35 -152 -35 -328z" />
<glyph unicode="&#xc1;" horiz-adv-x="763" d="M-131 -336q16 14 72 41q92 131 143 535q29 289 57 579q14 119 82 234q82 143 183 143q127 0 200 -135q55 -104 66 -250q6 -188 12 -379q12 -262 45 -354q23 -27 21 -76q-12 -2 -27 -2h-152q0 2 21 84l4 4q10 25 10 39v233q0 59 -47 60q-10 0 -165.5 -48t-164.5 -55 q-29 -18 -61 -215q-23 -125 -43 -249q-12 -47 -72 -201q-39 -100 -43 -109q-33 -80 -51 -92l-10 4q-80 96 -80 209zM215 522q0 -47 8 -86q127 39 176 56q139 47 154 67q18 29 18 100q0 143 -24 250q-39 174 -131 174q-113 0 -166 -233q-35 -152 -35 -328zM367 1293l141 213 l107 -33l-199 -209z" />
<glyph unicode="&#xc2;" horiz-adv-x="763" d="M-131 -336q16 14 72 41q92 131 143 535q29 289 57 579q14 119 82 234q82 143 183 143q127 0 200 -135q55 -104 66 -250q6 -188 12 -379q12 -262 45 -354q23 -27 21 -76q-12 -2 -27 -2h-152q0 2 21 84l4 4q10 25 10 39v233q0 59 -47 60q-10 0 -165.5 -48t-164.5 -55 q-29 -18 -61 -215q-23 -125 -43 -249q-12 -47 -72 -201q-39 -100 -43 -109q-33 -80 -51 -92l-10 4q-80 96 -80 209zM215 522q0 -47 8 -86q127 39 176 56q139 47 154 67q18 29 18 100q0 143 -24 250q-39 174 -131 174q-113 0 -166 -233q-35 -152 -35 -328zM217 1254l141 213 l43 10l37 -10l141 -213l-49 -29l-133 139l-131 -139z" />
<glyph unicode="&#xc3;" horiz-adv-x="763" d="M-131 -336q16 14 72 41q92 131 143 535q29 289 57 579q14 119 82 234q82 143 183 143q127 0 200 -135q55 -104 66 -250q6 -188 12 -379q12 -262 45 -354q23 -27 21 -76q-12 -2 -27 -2h-152q0 2 21 84l4 4q10 25 10 39v233q0 59 -47 60q-10 0 -165.5 -48t-164.5 -55 q-29 -18 -61 -215q-23 -125 -43 -249q-12 -47 -72 -201q-39 -100 -43 -109q-33 -80 -51 -92l-10 4q-80 96 -80 209zM215 522q0 -47 8 -86q127 39 176 56q139 47 154 67q18 29 18 100q0 143 -24 250q-39 174 -131 174q-113 0 -166 -233q-35 -152 -35 -328z" />
<glyph unicode="&#xc4;" horiz-adv-x="763" d="M-131 -336q16 14 72 41q92 131 143 535q29 289 57 579q14 119 82 234q82 143 183 143q127 0 200 -135q55 -104 66 -250q6 -188 12 -379q12 -262 45 -354q23 -27 21 -76q-12 -2 -27 -2h-152q0 2 21 84l4 4q10 25 10 39v233q0 59 -47 60q-10 0 -165.5 -48t-164.5 -55 q-29 -18 -61 -215q-23 -125 -43 -249q-12 -47 -72 -201q-39 -100 -43 -109q-33 -80 -51 -92l-10 4q-80 96 -80 209zM180 1362q0 70 96 70q37 0 58 -33h2q16 -22 16 -45q0 -59 -84 -80q-88 14 -88 88zM215 522q0 -47 8 -86q127 39 176 56q139 47 154 67q18 29 18 100 q0 143 -24 250q-39 174 -131 174q-113 0 -166 -233q-35 -152 -35 -328zM479 1362q0 70 96 70q37 0 58 -33h2q16 -22 16 -45q0 -59 -84 -80q-88 14 -88 88z" />
<glyph unicode="&#xc5;" horiz-adv-x="763" d="M-131 -336q16 14 72 41q92 131 143 535q29 289 57 579q14 119 82 234q82 143 183 143q127 0 200 -135q55 -104 66 -250q6 -188 12 -379q12 -262 45 -354q23 -27 21 -76q-12 -2 -27 -2h-152q0 2 21 84l4 4q10 25 10 39v233q0 59 -47 60q-10 0 -165.5 -48t-164.5 -55 q-29 -18 -61 -215q-23 -125 -43 -249q-12 -47 -72 -201q-39 -100 -43 -109q-33 -80 -51 -92l-10 4q-80 96 -80 209zM215 522q0 -47 8 -86q127 39 176 56q139 47 154 67q18 29 18 100q0 143 -24 250q-39 174 -131 174q-113 0 -166 -233q-35 -152 -35 -328zM250 1411 q0 68 47 115t115 47q76 0 126 -57.5t50 -131.5q0 -70 -47 -125t-115 -55q-74 0 -127 68q-49 61 -49 139zM315 1405q0 -41 31 -74t72 -33q37 0 65.5 29t28.5 66q0 39 -30.5 67.5t-71.5 28.5q-37 0 -66 -22.5t-29 -61.5z" />
<glyph unicode="&#xc6;" horiz-adv-x="1288" d="M-158 -328q31 12 82 49q88 111 156 525q41 287 82 575q18 115 90 232q88 141 184 141q37 0 111 -3t110 -3q47 0 145.5 3t145.5 3q106 0 187 -10q18 -43 39 -86q23 -55 24 -88l-2 -4q-16 8 -61 49q-25 20 -82 20h-310q-37 0 -36 -47l2 -313q0 -92 47 -92q31 0 144.5 60 t156.5 60q18 0 18 -116q0 -84 -16 -95q-18 16 -34.5 32t-47.5 16q-35 0 -102.5 -28t-94.5 -52q-72 -23 -71 -90v-240q0 -70 45 -70h358q39 0 98 60l2 2q14 25 43 37l2 -11q0 -39 -73 -196h-615v4h-10q8 27 23 82l6 4q20 57 20 170q0 164 -45 164q-10 0 -167.5 -46 t-166.5 -51q-33 -25 -65 -192q-49 -260 -137 -471q-31 -72 -47 -109q-41 -84 -56 -90l-10 6q-76 94 -72 195v14zM223 502q0 -35 4 -64q160 45 179 49q131 41 157.5 67t26.5 286q0 246 -82 245q-31 0 -62 -4q-121 -18 -180 -245q-43 -158 -43 -334z" />
<glyph unicode="&#xc7;" horiz-adv-x="1024" />
<glyph unicode="&#xc8;" horiz-adv-x="710" d="M31 0q0 20 17.5 58t17.5 59v958q0 29 -19 86q-16 10 -16 33q57 0 184 4q121 4 186 4q111 0 195 -10q12 -25 27 -53q18 -39 36 -121l-2 -4q-14 8 -59 47q-27 23 -80 22h-313q-35 0 -35 -45v-321q0 -86 47 -86q31 0 145.5 60.5t155.5 60.5q20 0 21 -117q0 -90 -19 -94 q-2 2 -35 32q-14 14 -47 15q-59 0 -159 -56q-109 -61 -109 -114v-240q0 -70 45 -69h358q33 0 66 26q18 16 37 35q12 14 41 37l2 -10q0 -39 -74 -197h-614z" />
<glyph unicode="&#xc9;" horiz-adv-x="710" d="M31 0q0 20 17.5 58t17.5 59v958q0 29 -19 86q-16 10 -16 33q57 0 184 4q121 4 186 4q111 0 195 -10q12 -25 27 -53q18 -39 36 -121l-2 -4q-14 8 -59 47q-27 23 -80 22h-313q-35 0 -35 -45v-321q0 -86 47 -86q31 0 145.5 60.5t155.5 60.5q20 0 21 -117q0 -90 -19 -94 q-2 2 -35 32q-14 14 -47 15q-59 0 -159 -56q-109 -61 -109 -114v-240q0 -70 45 -69h358q33 0 66 26q18 16 37 35q12 14 41 37l2 -10q0 -39 -74 -197h-614zM297 1274l141 213l107 -33l-199 -209z" />
<glyph unicode="&#xca;" horiz-adv-x="710" d="M31 0q0 20 17.5 58t17.5 59v958q0 29 -19 86q-16 10 -16 33q57 0 184 4q121 4 186 4q111 0 195 -10q12 -25 27 -53q18 -39 36 -121l-2 -4q-14 8 -59 47q-27 23 -80 22h-313q-35 0 -35 -45v-321q0 -86 47 -86q31 0 145.5 60.5t155.5 60.5q20 0 21 -117q0 -90 -19 -94 q-2 2 -35 32q-14 14 -47 15q-59 0 -159 -56q-109 -61 -109 -114v-240q0 -70 45 -69h358q33 0 66 26q18 16 37 35q12 14 41 37l2 -10q0 -39 -74 -197h-614zM168 1274l141 213l43 10l37 -10l141 -213l-49 -29l-133 139l-131 -139z" />
<glyph unicode="&#xcb;" horiz-adv-x="710" d="M31 0q0 20 17.5 58t17.5 59v958q0 29 -19 86q-16 10 -16 33q57 0 184 4q121 4 186 4q111 0 195 -10q12 -25 27 -53q18 -39 36 -121l-2 -4q-14 8 -59 47q-27 23 -80 22h-313q-35 0 -35 -45v-321q0 -86 47 -86q31 0 145.5 60.5t155.5 60.5q20 0 21 -117q0 -90 -19 -94 q-2 2 -35 32q-14 14 -47 15q-59 0 -159 -56q-109 -61 -109 -114v-240q0 -70 45 -69h358q33 0 66 26q18 16 37 35q12 14 41 37l2 -10q0 -39 -74 -197h-614z" />
<glyph unicode="&#xcc;" horiz-adv-x="270" d="M63 0q0 25 7 45q12 33 14 39l4 4q10 29 10 39v940q0 -6 -16 51q-18 18 -19 66v10q20 2 23 2h129q14 0 27 -4q0 -33 -19.5 -72t-19.5 -53v-940q0 -14 19.5 -51t19.5 -74q-10 -2 -25 -2h-154z" />
<glyph unicode="&#xcd;" horiz-adv-x="270" d="M63 0q0 25 7 45q12 33 14 39l4 4q10 29 10 39v940q0 -6 -16 51q-18 18 -19 66v10q20 2 23 2h129q14 0 27 -4q0 -33 -19.5 -72t-19.5 -53v-940q0 -14 19.5 -51t19.5 -74q-10 -2 -25 -2h-154zM123 1291l141 213l107 -33l-199 -209z" />
<glyph unicode="&#xce;" horiz-adv-x="270" d="M-39 1268l141 213l43 10l37 -10l141 -213l-49 -29l-133 139l-131 -139zM63 0q0 25 7 45q12 33 14 39l4 4q10 29 10 39v940q0 -6 -16 51q-18 18 -19 66v10q20 2 23 2h129q14 0 27 -4q0 -33 -19.5 -72t-19.5 -53v-940q0 -14 19.5 -51t19.5 -74q-10 -2 -25 -2h-154z" />
<glyph unicode="&#xcf;" horiz-adv-x="270" d="M63 0q0 25 7 45q12 33 14 39l4 4q10 29 10 39v940q0 -6 -16 51q-18 18 -19 66v10q20 2 23 2h129q14 0 27 -4q0 -33 -19.5 -72t-19.5 -53v-940q0 -14 19.5 -51t19.5 -74q-10 -2 -25 -2h-154z" />
<glyph unicode="&#xd0;" horiz-adv-x="931" d="M-2 537q0 47 8 51h62q92 0 88 0v473q0 25 -23 49q-31 33 -31 66l4 12q14 2 15 2q25 0 70 -19.5t69 -19.5q229 0 432 -202t203 -431q0 -305 -197 -428q-154 -96 -479 -96h-98q8 29 20 84l4 4q10 23 11 39v356q-39 2 -115 -20q-18 -14 -27 -15q-16 0 -16 95zM260 207 q0 -66 148 -66q164 0 259 102.5t95 268.5q0 236 -250 414q-100 72 -178 71q-74 0 -74 -69v-338q90 0 143 12q27 4 78 31q14 -4 15 -84q0 -66 -27 -66q-12 0 -26.5 3t-34.5 3q-121 0 -148 -4v-278z" />
<glyph unicode="&#xd1;" horiz-adv-x="643" d="M25 1190l4 2q59 -23 172 -76q16 -10 134 -326.5t140 -316.5q10 0 10 45v414q0 94 45 188q49 102 127 140q4 2 7 2q23 0 63 -48q35 -42 45 -69l-4 -4l-6 6h-14q-63 4 -119 -72t-56 -143v-852q0 -80 -24 -80q-31 0 -55 57q-70 215 -142 430q-117 342 -180 349l-10 -17 l2 -1265q0 -35 -113 -86h-8l-4 -3l-8 7q2 16 17 45.5t15 48.5v1505q0 25 -14 59q-10 29 -22 58zM129 1286q-6 43 14 59q61 47 90 47q53 0 93 -31.5t69 -31.5q18 0 43 8q14 4 47 33t43 33q27 -23 27 -43q0 -12 -29 -47q-59 -76 -113 -76q-55 0 -88 28.5t-88 28.5 q-23 0 -54.5 -23.5t-37.5 -23.5q-12 0 -16 39z" />
<glyph unicode="&#xd2;" horiz-adv-x="774" d="M47 598q0 219 76 381q100 211 295 211q190 0 287 -215q71 -162 71 -381q0 -217 -71 -379q-96 -213 -287 -213q-193 0 -293 213q-78 164 -78 383zM133 592q0 -166 62 -297q78 -170 223 -170t213 180q47 127 47 303q0 166 -51 293q-68 174 -209 174q-154 0 -230 -174 q-55 -131 -55 -309zM200 1446l107 33l141 -213l-49 -29z" />
<glyph unicode="&#xd3;" horiz-adv-x="774" d="M47 598q0 219 76 381q100 211 295 211q190 0 287 -215q71 -162 71 -381q0 -217 -71 -379q-96 -213 -287 -213q-193 0 -293 213q-78 164 -78 383zM133 592q0 -166 62 -297q78 -170 223 -170t213 180q47 127 47 303q0 166 -51 293q-68 174 -209 174q-154 0 -230 -174 q-55 -131 -55 -309zM367 1266l141 213l107 -33l-199 -209z" />
<glyph unicode="&#xd4;" horiz-adv-x="774" d="M47 598q0 219 76 381q100 211 295 211q190 0 287 -215q71 -162 71 -381q0 -217 -71 -379q-96 -213 -287 -213q-193 0 -293 213q-78 164 -78 383zM133 592q0 -166 62 -297q78 -170 223 -170t213 180q47 127 47 303q0 166 -51 293q-68 174 -209 174q-154 0 -230 -174 q-55 -131 -55 -309zM228 1283l141 213l43 10l37 -10l141 -213l-49 -29l-133 139l-131 -139z" />
<glyph unicode="&#xd5;" horiz-adv-x="774" d="M47 598q0 219 76 381q100 211 295 211q190 0 287 -215q71 -162 71 -381q0 -217 -71 -379q-96 -213 -287 -213q-193 0 -293 213q-78 164 -78 383zM133 592q0 -166 62 -297q78 -170 223 -170t213 180q47 127 47 303q0 166 -51 293q-68 174 -209 174q-154 0 -230 -174 q-55 -131 -55 -309zM232 1286q-6 43 14 59q61 47 90 47q53 0 93 -31.5t69 -31.5q18 0 43 8q14 4 47 33t43 33q27 -23 27 -43q0 -12 -29 -47q-59 -76 -113 -76q-55 0 -88 28.5t-88 28.5q-23 0 -54.5 -23.5t-37.5 -23.5q-12 0 -16 39z" />
<glyph unicode="&#xd6;" horiz-adv-x="774" d="M47 598q0 219 76 381q100 211 295 211q190 0 287 -215q71 -162 71 -381q0 -217 -71 -379q-96 -213 -287 -213q-193 0 -293 213q-78 164 -78 383zM133 592q0 -166 62 -297q78 -170 223 -170t213 180q47 127 47 303q0 166 -51 293q-68 174 -209 174q-154 0 -230 -174 q-55 -131 -55 -309zM180 1362q0 70 96 70q37 0 58 -33h2q16 -22 16 -45q0 -59 -84 -80q-88 14 -88 88zM479 1362q0 70 96 70q37 0 58 -33h2q16 -22 16 -45q0 -59 -84 -80q-88 14 -88 88z" />
<glyph unicode="&#xd7;" horiz-adv-x="743" d="M41 172q0 29 59 59v2l209 220l-102 114q-45 41 -139 70q4 18 57 49t74 31q10 0 82 -90q45 -55 88 -111q35 37 69 72q47 51 56 76l-27 16q-16 8 -14 25h114h80q0 -27 -41 -56q-31 -20 -88 -92q-43 -51 -86 -104l195 -211q0 -2 39 -27q24 -16 22 -39h-168q-6 0 -26 2 q0 20 22 31l4 8q-23 41 -69 90q-41 41 -80 82q-45 -43 -88 -86q-66 -68 -70 -90q23 -20 23 -39q-70 -2 -74 -2h-121z" />
<glyph unicode="&#xd8;" horiz-adv-x="774" d="M-12 8v8l129 222q-70 158 -70 360q0 219 78 381q98 211 293 211q119 0 203 -86q66 121 161 121l11 -2q2 -7 4 -15q0 -14 -111 -198q90 -168 90 -416q0 -217 -71 -379q-96 -213 -287 -213q-150 0 -242 129q-18 -29 -141 -231q-12 66 -47 108zM133 592q0 -135 43 -252 l389 668q-59 68 -147 67q-154 0 -230 -174q-55 -131 -55 -309zM231 227q72 -102 187 -102q145 0 213 180q47 127 47 303q0 170 -53 297z" />
<glyph unicode="&#xd9;" horiz-adv-x="800" d="M33 354q0 102 91 266t91 232q0 88 -86 174q49 109 86 109t72 -109q31 -92 30 -141q0 -100 -88 -273.5t-88 -259.5t71 -163.5t157 -77.5h180q63 0 90 10v930q0 8 -18 51q-23 23 -21 74q10 4 23 4h139l16 -2v-33q0 -16 -17.5 -46t-17.5 -46v-996q0 -12 37 -39v-4 q0 -14 -37 -14q-63 0 -187 2t-187 2q-135 0 -232 102q-104 113 -104 248zM235 1403l107 33l141 -213l-49 -29z" />
<glyph unicode="&#xda;" horiz-adv-x="800" d="M33 354q0 102 91 266t91 232q0 88 -86 174q49 109 86 109t72 -109q31 -92 30 -141q0 -100 -88 -273.5t-88 -259.5t71 -163.5t157 -77.5h180q63 0 90 10v930q0 8 -18 51q-23 23 -21 74q10 4 23 4h139l16 -2v-33q0 -16 -17.5 -46t-17.5 -46v-996q0 -12 37 -39v-4 q0 -14 -37 -14q-63 0 -187 2t-187 2q-135 0 -232 102q-104 113 -104 248zM391 1235l141 213l107 -33l-199 -209z" />
<glyph unicode="&#xdb;" horiz-adv-x="800" d="M33 354q0 102 91 266t91 232q0 88 -86 174q49 109 86 109t72 -109q31 -92 30 -141q0 -100 -88 -273.5t-88 -259.5t71 -163.5t157 -77.5h180q63 0 90 10v930q0 8 -18 51q-23 23 -21 74q10 4 23 4h139l16 -2v-33q0 -16 -17.5 -46t-17.5 -46v-996q0 -12 37 -39v-4 q0 -14 -37 -14q-63 0 -187 2t-187 2q-135 0 -232 102q-104 113 -104 248zM256 1266l141 213l43 10l37 -10l141 -213l-49 -29l-133 139l-131 -139z" />
<glyph unicode="&#xdc;" horiz-adv-x="800" d="M33 354q0 102 91 266t91 232q0 88 -86 174q49 109 86 109t72 -109q31 -92 30 -141q0 -100 -88 -273.5t-88 -259.5t71 -163.5t157 -77.5h180q63 0 90 10v930q0 8 -18 51q-23 23 -21 74q10 4 23 4h139l16 -2v-33q0 -16 -17.5 -46t-17.5 -46v-996q0 -12 37 -39v-4 q0 -14 -37 -14q-63 0 -187 2t-187 2q-135 0 -232 102q-104 113 -104 248zM203 1333q0 70 96 70q37 0 57 -33h2q17 -22 17 -45q0 -61 -84 -80q-88 14 -88 88zM502 1333q0 70 96 70q37 0 57 -33h2q17 -22 17 -45q0 -61 -84 -80q-88 14 -88 88z" />
<glyph unicode="&#xdd;" horiz-adv-x="894" d="M33 1198q18 2 22 2h129q14 0 27 -4q0 -55 -39 -92l-4 -17q98 -231 117 -276q92 -207 129 -246q14 14 30 78q33 133 167 362.5t200 258.5q37 -20 74 -41q49 -34 57 -54h-33q-111 -10 -245 -262q-86 -162 -152 -358q-37 -111 -37 -168q0 -256 19 -293q27 -51 26 -86 q-12 -2 -178 -2q0 25 17.5 58.5t17.5 47.5l-8 312l-303 653q-33 72 -33 127zM397 1288l142 213l106 -33l-199 -208z" />
<glyph unicode="&#xde;" horiz-adv-x="634" d="M39 1139q12 31 106 30q41 0 41 -12v-127q-2 -14 35 -18q27 -4 72 -2q59 4 51 4q113 0 203 -87t90 -198q0 -174 -115 -285q-55 -53 -213 -137q-117 -61 -116 -110v-205q-12 -29 -57.5 -57.5t-78.5 -30.5l-8 6v-2l10 35l4 2q16 35 17 61l2 1075l-25 29l-2 4zM182 410 q0 -12 17 -13q117 0 232.5 108.5t115.5 225.5q0 98 -105 148q-82 37 -192 36q-68 0 -68 -14v-205v-204v-82z" />
<glyph unicode="&#xdf;" horiz-adv-x="763" d="M-88 -465l2 12q76 66 94 91q35 49 35 126l2 1104q0 113 92 205t205 92q252 0 252 -202q0 -88 -80 -189.5t-80 -142.5q0 -29 82 -88q113 -84 148 -123q79 -84 79 -174q0 -106 -53 -187q-59 -94 -162 -94q-102 0 -180 65.5t-78 166.5q0 55 56 55q20 0 51 -12q39 -14 39 -31 q0 -10 -10.5 -29.5t-10.5 -32.5q0 -29 35 -52t66 -23q68 0 104.5 48t36.5 116q0 72 -82 133q-74 53 -149 106q-82 70 -82 158q0 51 86 154.5t86 152.5q0 47 -58 82q-49 31 -100 31q-84 0 -136 -65.5t-52 -151.5l-3 -1084q0 -68 -43 -190q-49 -141 -100 -142q-14 0 -53 50.5 t-39 64.5z" />
<glyph unicode="&#xe0;" horiz-adv-x="610" d="M33 209q0 113 106 194q98 57 201.5 119t103.5 131q0 29 -29.5 57.5t-58.5 28.5h-155q-27 0 -43.5 -22.5t-30.5 -44.5q-16 59 -16 143q0 37 55 37h258q123 0 123 -236q0 -27 -3 -79t-3 -78v-307q0 -37 23.5 -79.5t25.5 -58.5l-19 -14h-276q-104 0 -178 51q-84 57 -84 158z M133 182q2 -18 2 -28q131 -57 207 -58q72 0 100 19l2 4v317l-4 6h-10q-84 0 -186 -73q-111 -78 -111 -158v-29zM133 1180l107 32l141 -213l-49 -28z" />
<glyph unicode="&#xe1;" horiz-adv-x="610" d="M33 209q0 113 106 194q98 57 201.5 119t103.5 131q0 29 -29.5 57.5t-58.5 28.5h-155q-27 0 -43.5 -22.5t-30.5 -44.5q-16 59 -16 143q0 37 55 37h258q123 0 123 -236q0 -27 -3 -79t-3 -78v-307q0 -37 23.5 -79.5t25.5 -58.5l-19 -14h-276q-104 0 -178 51q-84 57 -84 158z M133 182q2 -18 2 -28q131 -57 207 -58q72 0 100 19l2 4v317l-4 6h-10q-84 0 -186 -73q-111 -78 -111 -158v-29zM270 991l142 213l106 -33l-199 -208z" />
<glyph unicode="&#xe2;" horiz-adv-x="610" d="M33 209q0 113 106 194q98 57 201.5 119t103.5 131q0 29 -29.5 57.5t-58.5 28.5h-155q-27 0 -43.5 -22.5t-30.5 -44.5q-16 59 -16 143q0 37 55 37h258q123 0 123 -236q0 -27 -3 -79t-3 -78v-307q0 -37 23.5 -79.5t25.5 -58.5l-19 -14h-276q-104 0 -178 51q-84 57 -84 158z M133 182q2 -18 2 -28q131 -57 207 -58q72 0 100 19l2 4v317l-4 6h-10q-84 0 -186 -73q-111 -78 -111 -158v-29zM140 959l141 213l43 10l37 -10l141 -213l-49 -29l-133 139l-131 -139z" />
<glyph unicode="&#xe3;" horiz-adv-x="610" d="M33 209q0 113 106 194q98 57 201.5 119t103.5 131q0 29 -29.5 57.5t-58.5 28.5h-155q-27 0 -43.5 -22.5t-30.5 -44.5q-16 59 -16 143q0 37 55 37h258q123 0 123 -236q0 -27 -3 -79t-3 -78v-307q0 -37 23.5 -79.5t25.5 -58.5l-19 -14h-276q-104 0 -178 51q-84 57 -84 158z M109 1020q-6 43 14 59q61 47 90 47q53 0 93 -31.5t69 -31.5q18 0 43 8q14 4 47 33t43 33q27 -23 27 -43q0 -12 -29 -47q-59 -76 -113 -76q-55 0 -88 28.5t-88 28.5q-23 0 -54.5 -23.5t-37.5 -23.5q-12 0 -16 39zM133 182q2 -18 2 -28q131 -57 207 -58q72 0 100 19l2 4v317 l-4 6h-10q-84 0 -186 -73q-111 -78 -111 -158v-29z" />
<glyph unicode="&#xe4;" horiz-adv-x="610" d="M33 209q0 113 106 194q98 57 201.5 119t103.5 131q0 29 -29.5 57.5t-58.5 28.5h-155q-27 0 -43.5 -22.5t-30.5 -44.5q-16 59 -16 143q0 37 55 37h258q123 0 123 -236q0 -27 -3 -79t-3 -78v-307q0 -37 23.5 -79.5t25.5 -58.5l-19 -14h-276q-104 0 -178 51q-84 57 -84 158z M109 1055q0 70 96 69q29 0 52.5 -24t23.5 -53q0 -33 -27 -56.5t-57 -23.5q-37 0 -62.5 24.5t-25.5 63.5zM133 182q2 -18 2 -28q131 -57 207 -58q72 0 100 19l2 4v317l-4 6h-10q-84 0 -186 -73q-111 -78 -111 -158v-29zM367 1055q0 70 96 69q29 0 52.5 -24t23.5 -53 q0 -33 -27 -56.5t-57 -23.5q-37 0 -62.5 24.5t-25.5 63.5z" />
<glyph unicode="&#xe5;" horiz-adv-x="610" d="M33 209q0 113 106 194q98 57 201.5 119t103.5 131q0 29 -29.5 57.5t-58.5 28.5h-155q-27 0 -43.5 -22.5t-30.5 -44.5q-16 59 -16 143q0 37 55 37h258q123 0 123 -236q0 -27 -3 -79t-3 -78v-307q0 -37 23.5 -79.5t25.5 -58.5l-19 -14h-276q-104 0 -178 51q-84 57 -84 158z M133 182q2 -18 2 -28q131 -57 207 -58q72 0 100 19l2 4v317l-4 6h-10q-84 0 -186 -73q-111 -78 -111 -158v-29zM162 1042q0 55 42 93.5t99 38.5q61 0 106.5 -46.5t45.5 -107.5q0 -57 -42 -101.5t-98 -44.5q-63 0 -108 51.5t-45 116.5zM217 1038q0 -35 27.5 -60.5t62.5 -25.5 q31 0 56.5 21.5t25.5 52.5q0 35 -27.5 57.5t-62.5 22.5q-31 0 -56.5 -18.5t-25.5 -49.5z" />
<glyph unicode="&#xe6;" horiz-adv-x="1114" d="M33 209q0 113 106 194q98 57 201.5 119t103.5 131q0 29 -29.5 57.5t-58.5 28.5h-155q-31 0 -74 -67q-16 59 -16 143q0 37 55 37h258q94 0 113 -115q80 109 231 109q102 0 198.5 -101.5t96.5 -203.5q-158 -102 -469 -312q8 -49 63 -75q47 -25 103 -25q113 0 151 59l62 156 l8 4q51 -20 92 -102q-2 -86 -117 -172q-106 -80 -196 -80q-106 0 -191 65l21 -45l-19 -14h-276q-104 0 -178 51q-84 57 -84 158zM133 182q2 -18 2 -28q131 -57 207 -58q72 0 100 19l2 4v317l-4 6h-10q-84 0 -186 -73q-111 -78 -111 -158v-29zM541 428q0 -90 26 -94 q123 80 367 241l4 9q-4 68 -71.5 116t-139.5 48q-92 0 -145 -119q-41 -92 -41 -201z" />
<glyph unicode="&#xe7;" horiz-adv-x="634" d="M33 461q0 147 86 264q94 127 235 127q113 0 170.5 -71.5t57.5 -186.5q0 -80 -41 -135q-45 -63 -125 -64q-49 0 -94 23q-53 29 -54 74q8 31 35 94q20 14 19 14q18 -29 38.5 -55.5t63.5 -26.5q66 0 65 113q0 55 -46 90t-103 35q-109 0 -162 -119q-41 -92 -41 -215 q0 -111 41 -197q53 -109 152 -108q82 0 127 61q29 41 53 135q4 18 18 15q25 -14 58 -47q37 -40 37 -60q0 -74 -93 -141q-78 -57 -161 -76q33 -41 32 -84q0 -35 -43 -114.5t-75 -79.5q-10 0 -11 24q0 20 31 50t31 57q0 12 -15 14v-2q-94 6 -92 90q-2 2 31 49 q-121 33 -180 187q-45 117 -45 266z" />
<glyph unicode="&#xe8;" horiz-adv-x="686" d="M37 420q0 180 69 293q84 139 252 139q104 0 196.5 -99.5t98.5 -205.5q-158 -102 -469 -311q8 -49 59.5 -82t104.5 -33q111 0 154 67q31 80 61 162l8 4q54 -24 93 -102q-4 -88 -114 -170t-200 -82q-313 0 -313 420zM114 1172l107 33l141 -213l-49 -29zM129 436 q0 -88 29 -96q123 80 366 242l4 8q-4 68 -75 117q-63 47 -136 47q-90 0 -145 -119q-43 -94 -43 -199z" />
<glyph unicode="&#xe9;" horiz-adv-x="686" d="M37 420q0 180 69 293q84 139 252 139q104 0 196.5 -99.5t98.5 -205.5q-158 -102 -469 -311q8 -49 59.5 -82t104.5 -33q111 0 154 67q31 80 61 162l8 4q54 -24 93 -102q-4 -88 -114 -170t-200 -82q-313 0 -313 420zM129 436q0 -88 29 -96q123 80 366 242l4 8 q-4 68 -75 117q-63 47 -136 47q-90 0 -145 -119q-43 -94 -43 -199zM270 991l142 213l106 -33l-199 -208z" />
<glyph unicode="&#xea;" horiz-adv-x="686" d="M37 420q0 180 69 293q84 139 252 139q104 0 196.5 -99.5t98.5 -205.5q-158 -102 -469 -311q8 -49 59.5 -82t104.5 -33q111 0 154 67q31 80 61 162l8 4q54 -24 93 -102q-4 -88 -114 -170t-200 -82q-313 0 -313 420zM129 436q0 -88 29 -96q123 80 366 242l4 8 q-4 68 -75 117q-63 47 -136 47q-90 0 -145 -119q-43 -94 -43 -199zM162 988l141 213l43 10l37 -10l141 -213l-49 -29l-133 139l-131 -139z" />
<glyph unicode="&#xeb;" horiz-adv-x="686" d="M37 420q0 180 69 293q84 139 252 139q104 0 196.5 -99.5t98.5 -205.5q-158 -102 -469 -311q8 -49 59.5 -82t104.5 -33q111 0 154 67q31 80 61 162l8 4q54 -24 93 -102q-4 -88 -114 -170t-200 -82q-313 0 -313 420zM117 1030q0 66 96 66q29 0 52.5 -24.5t23.5 -53.5 q0 -61 -84 -80q-88 14 -88 92zM129 436q0 -88 29 -96q123 80 366 242l4 8q-4 68 -75 117q-63 47 -136 47q-90 0 -145 -119q-43 -94 -43 -199zM375 1030q0 66 96 66q29 0 52.5 -24.5t23.5 -53.5q0 -61 -84 -80q-88 14 -88 92z" />
<glyph unicode="&#xec;" horiz-adv-x="270" d="M-78 1194l107 33l141 -213l-49 -29zM37 -2q0 25 6 45q12 31 14 39l4 4q10 37 11 37v600q0 18 -17.5 57t-17.5 70h106l72 -2q0 -59 -27 -84q-6 -18 -12 -41v-600q0 -12 19.5 -49t19.5 -74q-12 -2 -27 -2h-151z" />
<glyph unicode="&#xed;" horiz-adv-x="270" d="M37 -2q0 25 6 45q12 31 14 39l4 4q10 37 11 37v600q0 18 -17.5 57t-17.5 70h106l72 -2q0 -59 -27 -84q-6 -18 -12 -41v-600q0 -12 19.5 -49t19.5 -74q-12 -2 -27 -2h-151zM98 1004l141 213l107 -33l-199 -209z" />
<glyph unicode="&#xee;" horiz-adv-x="270" d="M-63 996l141 213l43 10l37 -10l141 -213l-49 -29l-133 139l-131 -139zM37 -2q0 25 6 45q12 31 14 39l4 4q10 37 11 37v600q0 18 -17.5 57t-17.5 70h106l72 -2q0 -59 -27 -84q-6 -18 -12 -41v-600q0 -12 19.5 -49t19.5 -74q-12 -2 -27 -2h-151z" />
<glyph unicode="&#xef;" horiz-adv-x="270" d="M37 -2q0 25 6 45q12 31 14 39l4 4q10 37 11 37v600q0 18 -17.5 57t-17.5 70h106l72 -2q0 -59 -27 -84q-6 -18 -12 -41v-600q0 -12 19.5 -49t19.5 -74q-12 -2 -27 -2h-151z" />
<glyph unicode="&#xf0;" horiz-adv-x="571" d="M-61 1126q0 63 34 105l7 2q29 -43 96 -119q47 -41 143 -125q74 43 176 139h2q14 0 39 -72.5t25 -92.5q0 -18 -21 -19q-10 0 -25.5 9.5t-23.5 9.5q-31 0 -94 -45q244 -238 244 -453q0 -172 -58 -287q-76 -147 -229 -147q-104 0 -166 80q-57 74 -57 180q0 61 43 153 q39 84 86 138q45 39 92 77q63 51 63 93l-2 10q-18 27 -106 100q-78 -47 -80 -47q-49 -31 -66.5 -55.5t-25.5 -24.5q-12 0 -35 66q-16 53 -20 80l8 12q6 0 20.5 -2t22.5 -2q20 0 88 43q-94 66 -113 82q-68 61 -67 112zM137 289q0 -139 115 -139q104 0 162 88q49 73 49 184 q0 137 -76 229q-84 -37 -167 -154.5t-83 -207.5z" />
<glyph unicode="&#xf1;" d="M29 848q0 12 45 12q37 0 113.5 -3t115.5 -3q137 0 228.5 -101.5t91.5 -240.5q0 -270 -103 -428q-49 -78 -71 -188q-8 -47 -23 -203q-2 -16 -10 -19q-33 8 -63.5 50.5t-30.5 76.5q0 117 95 341.5t95 369.5q0 88 -61.5 166t-147.5 78h-84q-23 0 -49 -8v-621q0 -16 19.5 -52 t19.5 -73q-12 -2 -27 -2h-151v33q35 82 35 92v678q0 12 -18.5 23.5t-18.5 21.5zM109 1020q-6 43 14 59q61 47 90 47q53 0 93 -31.5t69 -31.5q18 0 43 8q14 4 47 33t43 33q27 -23 27 -43q0 -12 -29 -47q-59 -76 -113 -76q-55 0 -88 28.5t-88 28.5q-23 0 -54.5 -23.5 t-37.5 -23.5q-12 0 -16 39z" />
<glyph unicode="&#xf2;" horiz-adv-x="651" d="M39 440q0 158 70 279q82 143 229 143q152 0 227 -151q62 -119 62 -287q0 -158 -66 -277q-80 -145 -223 -145q-152 0 -234 152q-66 121 -65 286zM147 434q0 -111 41 -198q51 -111 150 -111q98 0 147 115q37 85 37 198q0 115 -37 199q-49 111 -147 111q-100 0 -152 -113 q-39 -86 -39 -201zM156 1171l106 33l141 -213l-49 -28z" />
<glyph unicode="&#xf3;" horiz-adv-x="651" d="M39 436q0 160 70 281q82 145 229 145q150 0 227 -151q62 -119 62 -285q0 -158 -66 -276q-78 -147 -223 -148q-152 0 -234 150q-66 121 -65 284zM147 438q0 -115 39 -200q51 -113 152 -113q94 0 145 113q39 87 39 198q0 113 -37 199q-49 113 -147 113t-150 -113 q-41 -86 -41 -197zM256 1004l141 213l107 -33l-199 -209z" />
<glyph unicode="&#xf4;" horiz-adv-x="651" d="M39 440q0 158 70 279q82 143 229 143q152 0 227 -151q62 -119 62 -287q0 -158 -66 -277q-80 -145 -223 -145q-152 0 -234 152q-66 121 -65 286zM147 434q0 -111 41 -198q51 -111 150 -111q98 0 147 115q37 85 37 198q0 115 -37 199q-49 111 -147 111q-100 0 -152 -113 q-39 -86 -39 -201zM166 1008l141 213l43 8l37 -10l141 -213l-49 -29l-133 139l-131 -137z" />
<glyph unicode="&#xf5;" horiz-adv-x="651" d="M39 440q0 158 70 279q82 143 229 143q152 0 227 -151q62 -119 62 -287q0 -158 -66 -277q-80 -145 -223 -145q-152 0 -234 152q-66 121 -65 286zM129 1020q-6 43 14 59q61 47 90 47q53 0 93.5 -31.5t68.5 -31.5q18 0 43 8q14 4 47 33t43 33q27 -23 27 -43q0 -12 -29 -47 q-59 -76 -112 -76q-55 0 -88 28.5t-88 28.5q-23 0 -54.5 -23.5t-38.5 -23.5q-12 0 -16 39zM147 434q0 -111 41 -198q51 -111 150 -111q98 0 147 115q37 85 37 198q0 115 -37 199q-49 111 -147 111q-100 0 -152 -113q-39 -86 -39 -201z" />
<glyph unicode="&#xf6;" horiz-adv-x="651" d="M39 436q0 160 70 281q82 145 229 145q150 0 227 -151q62 -119 62 -283q0 -160 -66 -278q-78 -147 -223 -148q-152 0 -234 150q-66 121 -65 284zM117 1053q0 70 96 69q29 0 52.5 -24.5t23.5 -53.5q0 -59 -84 -79q-88 14 -88 88zM147 438q0 -115 39 -200q51 -113 152 -113 q94 0 145 113q39 87 39 198q0 113 -37 199q-49 113 -147 113t-150 -113q-41 -86 -41 -197zM375 1053q0 70 96 69q29 0 52.5 -24.5t23.5 -53.5q0 -59 -84 -79q-88 14 -88 88z" />
<glyph unicode="&#xf7;" horiz-adv-x="628" d="M2 258q0 23 16.5 85.5t30.5 62.5q4 0 21.5 -14.5t29.5 -14.5q256 0 408 37h-2q27 10 84 28q10 -4 10 -20q0 -27 -18 -94q-20 -78 -35 -78q-14 0 -30.5 25.5t-53.5 25.5q-63 0 -189.5 -19.5t-189.5 -19.5q-14 0 -35.5 -12t-34.5 -12q-12 0 -12 20zM199 618q0 31 25.5 49.5 t58.5 18.5h18q27 0 47.5 -25.5t20.5 -54.5q0 -74 -82 -74q-35 0 -61.5 26t-26.5 60zM209 47q0 31 25.5 49.5t58.5 18.5h18q29 0 48.5 -25.5t19.5 -54.5q0 -66 -78 -72v-2l-2 2q-35 0 -62.5 24.5t-27.5 59.5z" />
<glyph unicode="&#xf8;" horiz-adv-x="651" d="M-12 8v8q33 57 100 172q-49 106 -49 252q0 158 70 279q82 143 229 143q70 0 125 -33q16 35 59 101l-20 -35v2l18 14q53 47 109 47l10 -4q2 -4 4 -14q0 -12 -104 -184q88 -125 88 -332q0 -158 -66 -277q-80 -145 -223 -145q-113 0 -188 86q-47 -86 -117 -190 q-8 57 -45 110zM147 434q0 -63 15 -119l244 416q-31 16 -68 17q-100 0 -152 -113q-39 -86 -39 -201zM213 195q47 -70 125 -70q98 0 147 115q37 85 37 198q0 125 -45 213zM635 918l6 12z" />
<glyph unicode="&#xf9;" d="M33 270q0 68 52 167.5t52 148.5q0 59 -45 139q4 37 78 106l14 5l13 -5q45 -119 45 -215q0 -72 -49.5 -186.5t-49.5 -161.5q0 -68 57.5 -111.5t127.5 -43.5h67q51 0 80 6v604q0 8 -4 27q-35 49 -35 100q45 2 109 2h69v-33q-35 -74 -34 -94v-668q0 -12 36 -39v-4 q0 -16 -73 -16q-229 0 -330 33q-180 59 -180 239zM184 1184l107 33l141 -213l-49 -29z" />
<glyph unicode="&#xfa;" d="M33 270q0 68 52 167.5t52 148.5q0 59 -45 139q4 37 78 106l14 5l13 -5q45 -119 45 -215q0 -72 -49.5 -186.5t-49.5 -161.5q0 -68 57.5 -111.5t127.5 -43.5h67q51 0 80 6v604q0 8 -4 27q-35 49 -35 100q45 2 109 2h69v-33q-35 -74 -34 -94v-668q0 -12 36 -39v-4 q0 -16 -73 -16q-229 0 -330 33q-180 59 -180 239zM256 1004l141 213l107 -33l-199 -209z" />
<glyph unicode="&#xfb;" d="M33 270q0 68 52 167.5t52 148.5q0 59 -45 139q4 37 78 106l14 5l13 -5q45 -119 45 -215q0 -72 -49.5 -186.5t-49.5 -161.5q0 -68 57.5 -111.5t127.5 -43.5h67q51 0 80 6v604q0 8 -4 27q-35 49 -35 100q45 2 109 2h69v-33q-35 -74 -34 -94v-668q0 -12 36 -39v-4 q0 -16 -73 -16q-229 0 -330 33q-180 59 -180 239zM181 1000l141 213l43 10l37 -10l141 -213l-49 -29l-133 139l-131 -139z" />
<glyph unicode="&#xfc;" d="M33 270q0 68 52 167.5t52 148.5q0 59 -45 139q4 37 78 106l14 5l13 -5q45 -119 45 -215q0 -72 -49.5 -186.5t-49.5 -161.5q0 -68 57.5 -111.5t127.5 -43.5h67q51 0 80 6v604q0 8 -4 27q-35 49 -35 100q45 2 109 2h69v-33q-35 -74 -34 -94v-668q0 -12 36 -39v-4 q0 -16 -73 -16q-229 0 -330 33q-180 59 -180 239zM115 1096q0 70 96 69q29 0 52.5 -24.5t23.5 -53.5q0 -59 -84 -79q-88 14 -88 88zM373 1096q0 70 96 69q29 0 52.5 -24.5t23.5 -53.5q0 -59 -84 -79q-88 14 -88 88z" />
<glyph unicode="&#xfd;" horiz-adv-x="614" d="M-41 -358q4 35 80 77q100 57 139 101q74 82 74 213q0 59 -16 106l-160 463q-18 51 -80 92q12 31 49 72t64 49l4 -4q6 -18 217 -633q43 156 88 311q61 223 61 297q-2 6 -4 15q-35 18 -31 51h99q8 0 80 -2q2 -29 -15 -47q-20 -25 -24 -39l-195 -666q-20 -82 -41 -161 q-27 -96 -63 -156v-2q-23 -33 -115 -115q-84 -72 -98 -110zM256 1004l141 213l107 -33l-199 -209z" />
<glyph unicode="&#xfe;" horiz-adv-x="634" d="M39 1139q12 31 106 30q41 0 41 -12v-289q0 -14 37 -18q25 -4 70 0q59 2 53 2q113 0 203 -87t90 -198q0 -172 -115 -313q-55 -68 -215 -195q-115 -90 -114 -141v-336q-12 -29 -58.5 -57.5t-77.5 -30.5l-8 6v-2l10 35l5 2q16 35 16 62v1484q-12 14 -43 58zM182 152 q0 -10 17 -11q117 0 237 158q113 149 113 270q0 98 -107 148q-80 37 -190 37q-68 0 -68 -15z" />
<glyph unicode="&#xff;" horiz-adv-x="614" d="M-41 -358q4 33 82 79q98 59 137 103q74 84 74 209q0 59 -16 106l-160 463q-25 72 -80 92l2 4q4 27 45 68q35 35 66 49l4 -4q6 -31 51 -152q55 -160 166 -481q43 156 88 314q61 229 61 294q0 16 -14 23q-23 20 -21 43h103q4 0 76 -2q0 -31 -15 -49q-20 -23 -24 -37 l-195 -666q-2 -18 -6 -55q-16 -119 -98 -262v-2q-20 -29 -115 -115q-82 -76 -98 -110zM88 1055q0 70 96 69q29 0 52.5 -24t23.5 -53q0 -33 -26.5 -56.5t-57.5 -23.5q-37 0 -62.5 24.5t-25.5 63.5zM346 1055q0 70 96 69q29 0 52.5 -24t23.5 -53q0 -33 -26.5 -56.5 t-57.5 -23.5q-37 0 -62.5 24.5t-25.5 63.5z" />
<glyph unicode="&#x152;" horiz-adv-x="1353" d="M47 598q0 219 78 381q98 211 293 211q166 0 262 -168v43q0 27 -16.5 68t-18.5 59q408 8 371 8q111 0 194 -10q20 -43 39 -86q23 -51 25 -88l-2 -4q-14 8 -60 47q-25 23 -84 22h-309q-35 0 -35 -47v-313q0 -92 47 -92q33 0 146 60.5t156 60.5q20 0 20 -117q0 -84 -18 -94 q-18 16 -35 31.5t-47 15.5q-61 0 -160 -56q-109 -59 -109 -114v-240q0 -70 45 -70h359q37 0 86 48q16 18 57 51l2 -10q0 -41 -73 -197h-615q0 18 18.5 57t16.5 74v41q-94 -168 -262 -168q-193 0 -293 213q-78 164 -78 383zM133 592q0 -166 62 -297q78 -170 223 -170t213 180 q47 127 47 303q0 166 -51 293q-68 174 -209 174q-154 0 -230 -174q-55 -131 -55 -309z" />
<glyph unicode="&#x153;" horiz-adv-x="1175" d="M39 440q0 158 70 279q82 143 229 143q160 0 235 -168q82 174 271 174q104 0 197.5 -99t97.5 -206q-156 -104 -469 -311q8 -49 65 -78q45 -23 101 -22q113 0 151 59l62 156l8 4q53 -27 92 -103q-2 -88 -112.5 -170t-200.5 -82q-80 0 -154 40t-111 110q-80 -164 -233 -164 q-152 0 -234 152q-66 121 -65 286zM147 434q0 -111 41 -198q51 -111 150 -111q98 0 147 115q37 85 37 198q0 115 -37 199q-49 111 -147 111q-100 0 -152 -113q-39 -86 -39 -201zM608 500q0 -25 17 -127q2 -14 18 -17q123 78 367 242l4 8q-2 66 -74 117q-66 45 -135 45 q-88 0 -146 -94q-51 -82 -51 -174z" />
<glyph unicode="&#x178;" horiz-adv-x="894" d="M33 1198q18 2 22 2h129q14 0 27 -4q0 -55 -39 -92l-4 -17q98 -231 117 -276q92 -207 129 -246q14 14 30 78q33 133 167 362.5t200 258.5q37 -20 74 -41q49 -34 57 -54h-33q-111 -10 -245 -262q-86 -162 -152 -358q-37 -111 -37 -168q0 -256 19 -293q27 -51 26 -86 q-12 -2 -178 -2q0 25 17.5 58.5t17.5 47.5l-8 312l-303 653q-33 72 -33 127zM252 1321q0 70 96 69q29 0 52.5 -24t23.5 -53q0 -33 -26.5 -56.5t-57.5 -23.5q-37 0 -62.5 24.5t-25.5 63.5zM510 1321q0 70 96 69q29 0 52.5 -24t23.5 -53q0 -33 -26.5 -56.5t-57.5 -23.5 q-37 0 -62.5 24.5t-25.5 63.5z" />
<glyph unicode="&#x2c6;" d="M70 1004l141 213l43 10l37 -10l141 -213l-49 -29l-133 139l-131 -139z" />
<glyph unicode="&#x2dc;" horiz-adv-x="684" d="M109 1020q-6 43 14 59q61 47 90 47q53 0 93 -31.5t69 -31.5q18 0 43 8q14 4 47 33t43 33q27 -23 27 -43q0 -12 -29 -47q-59 -76 -113 -76q-55 0 -88 28.5t-88 28.5q-23 0 -54.5 -23.5t-37.5 -23.5q-12 0 -16 39z" />
<glyph unicode="&#x2000;" horiz-adv-x="786" />
<glyph unicode="&#x2001;" horiz-adv-x="1573" />
<glyph unicode="&#x2002;" horiz-adv-x="786" />
<glyph unicode="&#x2003;" horiz-adv-x="1573" />
<glyph unicode="&#x2004;" horiz-adv-x="524" />
<glyph unicode="&#x2005;" horiz-adv-x="393" />
<glyph unicode="&#x2006;" horiz-adv-x="262" />
<glyph unicode="&#x2007;" horiz-adv-x="262" />
<glyph unicode="&#x2008;" horiz-adv-x="196" />
<glyph unicode="&#x2009;" horiz-adv-x="314" />
<glyph unicode="&#x200a;" horiz-adv-x="87" />
<glyph unicode="&#x2010;" horiz-adv-x="700" d="M104 481v35q0 61 15 62q2 0 21.5 -10.5t33.5 -10.5q33 0 191 41q150 39 194 57h-2q25 14 76 41q18 -2 18 -86l2 -39q1 -65 -22 -65q-12 0 -29.5 18.5t-38.5 18.5q-76 0 -192 -37q-94 -31 -187 -60q-10 -4 -32.5 -19t-30.5 -15q-16 0 -17 69z" />
<glyph unicode="&#x2011;" horiz-adv-x="700" d="M104 481v35q0 61 15 62q2 0 21.5 -10.5t33.5 -10.5q33 0 191 41q150 39 194 57h-2q25 14 76 41q18 -2 18 -86l2 -39q1 -65 -22 -65q-12 0 -29.5 18.5t-38.5 18.5q-76 0 -192 -37q-94 -31 -187 -60q-10 -4 -32.5 -19t-30.5 -15q-16 0 -17 69z" />
<glyph unicode="&#x2012;" horiz-adv-x="700" d="M104 481v35q0 61 15 62q2 0 21.5 -10.5t33.5 -10.5q33 0 191 41q150 39 194 57h-2q25 14 76 41q18 -2 18 -86l2 -39q1 -65 -22 -65q-12 0 -29.5 18.5t-38.5 18.5q-76 0 -192 -37q-94 -31 -187 -60q-10 -4 -32.5 -19t-30.5 -15q-16 0 -17 69z" />
<glyph unicode="&#x2013;" horiz-adv-x="835" d="M53 479q0 29 8 70q8 53 23 53q4 0 23.5 -6t31.5 -6q395 0 533 33q33 10 102 32q10 -8 10 -28q0 -31 -6 -72q-10 -53 -24 -53t-35 7t-57 7q-72 0 -264.5 -19.5t-264.5 -19.5q-14 0 -34.5 -11t-30.5 -11q-14 0 -15 24z" />
<glyph unicode="&#x2014;" horiz-adv-x="1026" d="M53 479q0 29 8 70q8 53 23 53q4 0 23.5 -6t31.5 -6q150 0 371 12q268 16 367 41q33 10 102 33q10 -9 10 -29q0 -31 -6 -72q-10 -53 -25 -53q-14 0 -34.5 7.5t-57.5 7.5q-72 0 -366.5 -30t-366.5 -30q-14 0 -34.5 -11t-30.5 -11q-14 0 -15 24z" />
<glyph unicode="&#x2018;" horiz-adv-x="260" d="M51 1139q0 49 38 111.5t81 84.5q10 -4 10 -20q0 -20 -17.5 -39t-33.5 -35v-2l-8 -12l-4 -21l8 -16q98 0 98 -82q0 -72 -82 -72q-39 0 -64.5 31t-25.5 72z" />
<glyph unicode="&#x2019;" horiz-adv-x="260" d="M53 1233l4 10v4q18 49 80 49h19q29 0 47 -32q2 -2 24 -56v-14q0 -39 -41 -115q-45 -82 -77 -82q-10 0 -11 25q0 16 43 59v2q18 20 19 45q0 20 -54 15q-53 53 -53 90z" />
<glyph unicode="&#x201a;" horiz-adv-x="307" d="M53 90q0 4 2 10t2 11q18 49 80 49h19q38 0 71 -88q0 -45 -39 -123q-43 -88 -79 -88q-10 0 -11 20q0 49 43 62v4q2 4 19 37q0 20 -19 24q-6 0 -35 -2q-53 53 -53 84z" />
<glyph unicode="&#x201c;" horiz-adv-x="550" d="M51 1077q0 49 38 111.5t81 85.5q10 -4 10 -21q0 -29 -24.5 -65.5t-30.5 -59.5q98 1 98 -81q0 -72 -82 -72q-39 0 -64.5 30.5t-25.5 71.5zM319 1077q0 47 39 113.5t82 83.5l9 -19q0 -27 -21 -63q-29 -45 -35 -64q101 1 101 -81q0 -72 -82 -72q-39 0 -66 31.5t-27 70.5z " />
<glyph unicode="&#x201d;" horiz-adv-x="573" d="M53 1233q12 63 84 63h19q29 0 47 -32q2 -2 24 -56v-14q0 -39 -41 -115q-45 -82 -77 -82q-10 0 -11 25q0 18 24.5 48t24.5 58q0 4 -52 29t-42 76zM332 1231q0 29 26.5 47t55.5 18h18q27 0 50.5 -35.5t23.5 -64.5q0 -39 -41 -115q-45 -84 -80 -84q-8 0 -8 21q0 20 24.5 51 t24.5 59q0 2 -47 25t-47 78z" />
<glyph unicode="&#x201e;" horiz-adv-x="573" d="M53 90q0 4 2 10t2 11q18 49 80 49h19q38 0 71 -88q0 -45 -39 -123q-43 -88 -79 -88q-10 0 -11 20q0 49 43 62v4q2 4 19 37q0 20 -19 24q-6 0 -35 -2q-53 53 -53 84zM332 78q0 82 82 82h18q23 0 48.5 -38t25.5 -63q0 -41 -41 -116q-43 -82 -80 -82l-8 18q2 51 43 64v4 q4 4 18 37q0 12 -53 33.5t-53 60.5z" />
<glyph unicode="&#x2022;" horiz-adv-x="477" d="M31 547q0 84 58 137t142 53q88 0 151.5 -65.5t63.5 -155.5q0 -82 -58 -146.5t-140 -64.5q-90 0 -153.5 76t-63.5 166z" />
<glyph unicode="&#x2026;" horiz-adv-x="927" d="M51 45q0 70 96 70q37 0 58 -33h2q16 -22 16 -45q0 -59 -84 -80q-88 14 -88 88zM348 43q0 70 96 70q35 0 58 -33h2q16 -22 16 -45q0 -59 -84 -80q-88 14 -88 88zM664 45q0 70 96 70q37 0 57 -33h2q17 -22 17 -45q0 -59 -84 -80q-88 14 -88 88z" />
<glyph unicode="&#x202f;" horiz-adv-x="314" />
<glyph unicode="&#x2039;" horiz-adv-x="473" d="M74 424q0 37 73 172q68 121 105 168q20 27 57 27q47 0 53 -23q-31 -72 -92 -170q-51 -84 -102 -166q55 -84 108 -168q66 -100 97 -174q2 -29 -54 -29q-35 0 -55 20.5t-105 172.5t-85 170z" />
<glyph unicode="&#x203a;" horiz-adv-x="473" d="M98 90q31 74 97 174q53 84 108 168l-192 336q14 23 51 23q41 0 57 -27l141 -242q37 -63 37 -98q0 -16 -85 -168t-104.5 -173.5t-55.5 -21.5q-53 0 -54 29z" />
<glyph unicode="&#x205f;" horiz-adv-x="393" />
<glyph unicode="&#x20ac;" horiz-adv-x="937" d="M-4 340q4 31 20 80q20 61 35 63q4 -2 25 -18q14 -12 24 -10l82 2q0 72 13 157q-49 -2 -146 -22q-20 -8 -31 -8l-8 18q4 31 21 80q20 61 35 63q8 -2 30 -18q14 -12 39 -12q-16 0 84 6q53 188 195 338q152 158 336 194l20 -24q6 -25 45 -82t41 -78l-2 -2q-63 20 -127 20 q-131 0 -242 -118q-92 -100 -139 -242q96 -2 285 16h-2q29 10 88 27q8 -4 8 -20q0 -29 -23 -95q-23 -72 -45 -71q-10 0 -21 22.5t-46 28.5h-45q-43 0 -113 -6q-84 -6 -113 -6q-12 -70 -16 -158q84 -2 248 14h-2q29 8 88 27q8 -6 8 -23q0 -29 -22 -92q-23 -72 -45 -72 q-10 0 -21.5 21.5t-42.5 28.5q-14 2 -68 2q-59 0 -135 -6q27 -164 169.5 -291t305.5 -127q8 0 37 28.5t49 28.5t21 -47q0 -72 -41 -236q-16 33 -178 111q-188 90 -287 178q-160 143 -194 344q-76 -4 -80 -4q-45 -6 -78 -20q-20 -8 -31 -8z" />
<glyph unicode="&#x2122;" horiz-adv-x="1304" d="M4 1016q18 20 72 106h327l9 -4q14 -34 51 -100q-49 35 -164 35q-43 0 -43 -41v-353q0 -29 19.5 -45t39.5 -32q-78 -16 -131 -17q-43 0 -43 15q0 12 19 26q37 10 37 21v387q0 39 -37 39q-96 0 -156 -37zM412 569q-2 29 14 56q23 43 27 49q37 137 75 272q63 178 179 178 q72 0 116 -43q51 43 138 43q94 0 157 -116q39 -72 80 -230q35 -139 55 -160v-4q11 -13 11 -36v-9h-68q-49 -2 -66 -2l-10 6q-2 18 7.5 28.5t19.5 21.5q-45 227 -55 258q-55 182 -142 182q-53 0 -68.5 -21.5t-15.5 -74.5v-318q0 -8 8 -26q18 -14 21 -56q-16 -2 -21 -2h-110 q0 4 14 56l4 2q2 12 6 26v318q0 96 -81 96q-78 0 -125 -186q-2 -12 -43 -256q10 -6 18 -12.5t8 -28.5v-11q-18 -2 -22 -2h-115q-4 0 -16 2z" />
<glyph unicode="&#x25fc;" horiz-adv-x="849" d="M0 0v850h850v-850h-850z" />
</font>
</defs>
</svg>
